<svg xmlns="http://www.w3.org/2000/svg" width="164.677" height="42.607" viewBox="0 0 164.677 42.607">
  <g id="Group_60546" data-name="Group 60546" transform="translate(1967.177 -6560.52)">
    <path id="Path_36696" data-name="Path 36696" d="M276.369,63.7a2.179,2.179,0,0,1,1.787.851,4.184,4.184,0,0,1,.745,1.4,5.894,5.894,0,0,1,.319,1.745v.255a4.582,4.582,0,0,1-.83,2.766,2.481,2.481,0,0,1-2.042,1.128,2.223,2.223,0,0,1-1.893-1.17,5.189,5.189,0,0,1-.766-2.893,4.866,4.866,0,0,1,.787-2.83A2.236,2.236,0,0,1,276.369,63.7Zm-.7,2a1.852,1.852,0,0,0-.191.894c0,.17.021.425.043.7a8.14,8.14,0,0,0,.149.915,8.223,8.223,0,0,0,.4,1.34c.17.4.383.6.617.6a.491.491,0,0,0,.447-.319,1.984,1.984,0,0,0,.17-.872c0-.191-.021-.426-.043-.723a6.642,6.642,0,0,0-.128-.872,5.785,5.785,0,0,0-.4-1.383c-.17-.425-.4-.638-.66-.638C275.944,65.335,275.795,65.442,275.667,65.7Z" transform="translate(-2197.203 6505.984)" fill="#fff"/>
    <path id="Path_36697" data-name="Path 36697" d="M301.519,69.267l.021-1.723v-.66c0-.6-.021-.979-.043-1.17a.638.638,0,0,0-.234-.425c-.043-.043-.085-.064-.106-.085s-.064-.043-.064-.085a.343.343,0,0,1-.085-.149.467.467,0,0,1-.021-.17.579.579,0,0,1,.213-.511,1.015,1.015,0,0,1,.617-.17.872.872,0,0,1,.234.021c.085,0,.149.021.213.021s.149.021.213.021.149.021.234.021a2.186,2.186,0,0,0,.362-.021c.128-.021.234-.021.362-.043a1.947,1.947,0,0,1,.34-.021,1.829,1.829,0,0,1,.34-.021,1.7,1.7,0,0,1,1.3.553,2.24,2.24,0,0,1,.489,1.489,2.978,2.978,0,0,1-.106.851c-.085.213-.17.383-.234.511a.9.9,0,0,1-.213.255c-.064.064-.106.128-.149.17v.064a.27.27,0,0,0,.021.128.3.3,0,0,0,.064.085c.021,0,.021.021.043.021s.021.021.043.021a1.276,1.276,0,0,1,.617.787,5.937,5.937,0,0,1,.213,1.213,1.514,1.514,0,0,0,.085.468.426.426,0,0,0,.191.191,1.171,1.171,0,0,1,.191.149.425.425,0,0,1,.085.3.721.721,0,0,1-.319.617,1.419,1.419,0,0,1-.83.234,1.183,1.183,0,0,1-.638-.149,1.23,1.23,0,0,1-.426-.447,3.337,3.337,0,0,1-.213-.553,3.4,3.4,0,0,1-.128-.638c-.021-.043-.021-.106-.043-.149a.362.362,0,0,1-.021-.149,5.251,5.251,0,0,0-.234-.957c-.085-.277-.234-.4-.447-.4a.17.17,0,0,0-.191.128,3.158,3.158,0,0,0-.043.617,9.737,9.737,0,0,0,.043,1.042.577.577,0,0,0,.213.4.834.834,0,0,1,.17.213.59.59,0,0,1,.064.277.54.54,0,0,1-.3.532,2.5,2.5,0,0,1-1.043.149,2.217,2.217,0,0,1-1.042-.191.655.655,0,0,1-.34-.6.387.387,0,0,1,.043-.234c.021-.043.064-.085.085-.128l.064-.064a.294.294,0,0,0,.064-.085,1.529,1.529,0,0,0,.191-.447A4.691,4.691,0,0,0,301.519,69.267Zm1.723-3.489L303.2,67.1a.587.587,0,0,0,.043.3.168.168,0,0,0,.17.106.489.489,0,0,0,.468-.255,1.878,1.878,0,0,0,.149-.808,1.978,1.978,0,0,0-.128-.83.425.425,0,0,0-.383-.277.2.2,0,0,0-.191.106c-.064.043-.085.17-.085.34Z" transform="translate(-2218.693 6505.67)" fill="#fff"/>
    <path id="Path_36698" data-name="Path 36698" d="M331.463,65.014l-.149.128a.83.83,0,0,0-.213.6,15.038,15.038,0,0,0-.064,1.745v.447l.021,1.447a3.858,3.858,0,0,0,.064.872.574.574,0,0,0,.213.362h.021a.021.021,0,0,1,.021.021.6.6,0,0,1,.192.213.713.713,0,0,1-.234.808,1.834,1.834,0,0,1-.6.234,1.379,1.379,0,0,1-.4.043h-.319a1.925,1.925,0,0,1-.957-.17.534.534,0,0,1-.319-.511.473.473,0,0,1,.021-.191.27.27,0,0,1,.085-.149.3.3,0,0,0,.064-.085c.021-.043.043-.043.085-.064a.9.9,0,0,0,.213-.426c.021-.17.043-.553.064-1.106l.021-1.425v-.319a13.547,13.547,0,0,0-.064-1.659,1.108,1.108,0,0,0-.277-.638.562.562,0,0,1-.106-.128c-.021-.043-.064-.064-.085-.106a.3.3,0,0,1-.043-.128c0-.043-.021-.085-.021-.149a.491.491,0,0,1,.276-.468,2.045,2.045,0,0,1,.6-.234,4.085,4.085,0,0,1,.468-.064,2.1,2.1,0,0,1,.319-.021,1.9,1.9,0,0,1,.957.191.638.638,0,0,1,.34.553.763.763,0,0,1-.043.234A.985.985,0,0,1,331.463,65.014Z" transform="translate(-2240.51 6505.838)" fill="#fff"/>
    <path id="Path_36699" data-name="Path 36699" d="M343.951,63.613h2.659a1.379,1.379,0,0,0,.447-.106c.021,0,.064-.021.085-.021a.161.161,0,0,0,.085-.043c.021-.021.021-.021.043-.021s.021-.021.043-.021h.043c.149,0,.3.17.4.468a3.4,3.4,0,0,1,.17,1.085,1.311,1.311,0,0,1-.106.574.311.311,0,0,1-.3.213.213.213,0,0,1-.191-.085.41.41,0,0,1-.106-.191.3.3,0,0,1-.043-.128c0-.043-.043-.085-.064-.149a.9.9,0,0,0-.34-.362,1.577,1.577,0,0,0-.808-.17.711.711,0,0,0-.489.128.806.806,0,0,0-.128.532l-.021.957c0,.234.021.383.085.447a.563.563,0,0,0,.383.085.251.251,0,0,0,.255-.191,2.519,2.519,0,0,0,.085-.425.021.021,0,0,1,.021-.021c.021-.149.043-.3.064-.425s.106-.17.234-.17.255.149.319.447a4.989,4.989,0,0,1,.106,1.255,5.2,5.2,0,0,1-.128,1.3c-.085.319-.213.489-.362.489a.162.162,0,0,1-.17-.128q-.032-.128-.064-.319c0-.021-.021-.043-.021-.064v-.064a1.278,1.278,0,0,0-.128-.4c-.064-.128-.17-.17-.362-.17a.189.189,0,0,0-.213.17,1.913,1.913,0,0,0-.064.6A4.792,4.792,0,0,0,345.482,70c.064.149.277.234.617.234a1.387,1.387,0,0,0,.872-.213,1.588,1.588,0,0,0,.468-.808c.021-.085.043-.149.064-.213a1.039,1.039,0,0,1,.064-.149.587.587,0,0,1,.128-.17.213.213,0,0,1,.149-.043c.106,0,.191.064.255.213a1.347,1.347,0,0,1,.106.553c0,.085-.021.234-.043.4s-.064.362-.106.574a6.146,6.146,0,0,1-.234.745c-.085.234-.191.34-.3.34a.8.8,0,0,1-.213-.021c-.064-.021-.128-.021-.213-.043s-.149-.021-.213-.043a.8.8,0,0,0-.213-.021h-3.149a.387.387,0,0,1-.3-.128.464.464,0,0,1-.106-.362.7.7,0,0,1,.043-.255l.128-.128c.021,0,.021-.021.043-.021s.021-.021.043-.021a1.179,1.179,0,0,0,.128-.17.79.79,0,0,0,.106-.319c.043-.3.064-.638.085-1s.021-.808.021-1.3c0-.723-.021-1.319-.043-1.787a4.22,4.22,0,0,0-.128-1,.342.342,0,0,0-.085-.149.375.375,0,0,0-.106-.085.074.074,0,0,0-.043-.021c-.021,0-.021-.021-.043-.021a.336.336,0,0,1-.149-.149.5.5,0,0,1-.043-.255.562.562,0,0,1,.149-.468A2.911,2.911,0,0,1,343.951,63.613Z" transform="translate(-2251.827 6506.218)" fill="#fff"/>
    <path id="Path_36700" data-name="Path 36700" d="M372.5,71.076l-2.213-3.042a.676.676,0,0,0-.213-.213.425.425,0,0,0-.17-.085c-.085,0-.128.085-.17.234a3.107,3.107,0,0,0-.064.723,5.973,5.973,0,0,0,.064,1.085.638.638,0,0,0,.234.426c.021,0,.021.021.043.021l.021.021a.587.587,0,0,1,.149.191.8.8,0,0,1,.043.255.687.687,0,0,1-.277.574,1.527,1.527,0,0,1-.851.191,1.242,1.242,0,0,1-.745-.191.687.687,0,0,1-.277-.574.608.608,0,0,1,.085-.362,1.908,1.908,0,0,1,.191-.213,1.128,1.128,0,0,0,.213-.7c.043-.362.043-1.021.043-2,0-.532-.021-1.021-.043-1.447a3.7,3.7,0,0,0-.128-.915.473.473,0,0,0-.106-.234l-.149-.149a.021.021,0,0,1-.021-.021l-.192-.191a.425.425,0,0,1-.085-.3.638.638,0,0,1,.277-.6,2.259,2.259,0,0,1,1.021-.17c.149,0,.277.021.362.021a.638.638,0,0,1,.234.128.374.374,0,0,1,.106.085.9.9,0,0,1,.106.149l1.851,2.51a1.809,1.809,0,0,0,.213.277c.064.064.106.085.149.085a.175.175,0,0,0,.149-.149,2.4,2.4,0,0,0,.043-.489,9.349,9.349,0,0,0-.043-1,.6.6,0,0,0-.234-.383.551.551,0,0,1-.213-.234.617.617,0,0,1-.064-.3.721.721,0,0,1,.213-.574,1.5,1.5,0,0,1,.808-.149,1.821,1.821,0,0,1,.894.149.575.575,0,0,1,.234.553.812.812,0,0,1-.064.34.736.736,0,0,1-.213.234.717.717,0,0,0-.255.468,8.261,8.261,0,0,0-.064,1.255v2.957a8.707,8.707,0,0,1-.106,1.617c-.064.3-.192.447-.34.447a.343.343,0,0,1-.234-.106c-.064-.064-.128-.149-.191-.213,0-.021-.021-.021-.021-.043.021.085.021.085,0,.043Z" transform="translate(-2271.36 6506.242)" fill="#fff"/>
    <path id="Path_36701" data-name="Path 36701" d="M398.941,63.849H400.9c.043,0,.085.021.128,0h.106a.393.393,0,0,1,.149-.043,2.009,2.009,0,0,1,.191-.064h.064a.079.079,0,0,1,.064-.021h.064q.255,0,.447.383a3.343,3.343,0,0,1,.3.851,3.919,3.919,0,0,1,.085.489,3.007,3.007,0,0,1,.021.4,1.183,1.183,0,0,1-.149.638.438.438,0,0,1-.4.234.445.445,0,0,1-.34-.17,1.878,1.878,0,0,1-.277-.553,1.215,1.215,0,0,0-.128-.319l-.085-.17c-.021-.021-.043-.043-.064-.043s-.043-.021-.085-.021a.213.213,0,0,0-.191.17,2.862,2.862,0,0,0-.064.574v3.17a2.766,2.766,0,0,0,.064.723.657.657,0,0,0,.234.34.465.465,0,0,1,.106.064l.064.064a1.167,1.167,0,0,1,.149.191.794.794,0,0,1,.043.255.638.638,0,0,1-.362.6,2.458,2.458,0,0,1-1.106.191,2.967,2.967,0,0,1-1.319-.213.685.685,0,0,1-.425-.638.366.366,0,0,1,.106-.319.765.765,0,0,1,.213-.149c.021,0,.021-.021.043-.021s.021-.021.043-.021a.368.368,0,0,0,.213-.319c.021-.17.064-.489.085-.957l.043-1.383c0-.17.021-.362.021-.553v-.617a7.855,7.855,0,0,0-.043-.957c-.021-.149-.085-.234-.191-.234a.359.359,0,0,0-.106.043.2.2,0,0,0-.085.128,1.863,1.863,0,0,0-.128.213l-.128.255a1.53,1.53,0,0,1-.255.447.468.468,0,0,1-.34.213.353.353,0,0,1-.34-.234,1.149,1.149,0,0,1-.128-.574,3.151,3.151,0,0,1,.021-.425,2.018,2.018,0,0,1,.106-.489,3.915,3.915,0,0,1,.34-.872c.149-.277.3-.4.447-.4h.106c.021,0,.064.021.085.021s.043.021.064.021.042.021.064.021a.622.622,0,0,0,.192.043C398.686,63.806,398.813,63.849,398.941,63.849Z" transform="translate(-2294.436 6505.981)" fill="#fff"/>
    <path id="Path_36702" data-name="Path 36702" d="M436.94,66.427a.861.861,0,0,1-.106-.191,1.194,1.194,0,0,0-.106-.17,1.837,1.837,0,0,0-.319-.362.936.936,0,0,0-.468-.149c-.085,0-.149-.021-.234-.021h-.255a.379.379,0,0,0-.362.319A5.267,5.267,0,0,0,435,67.087a.385.385,0,0,0,.085.3.443.443,0,0,0,.319.085.3.3,0,0,0,.3-.149,1.8,1.8,0,0,0,.106-.362v-.021a.021.021,0,0,1,.021-.021,1.4,1.4,0,0,1,.085-.319.232.232,0,0,1,.213-.149c.17,0,.277.149.362.425a5.056,5.056,0,0,1,.106,1.3,4.226,4.226,0,0,1-.149,1.319c-.106.3-.213.468-.383.468a.2.2,0,0,1-.191-.149,2.644,2.644,0,0,0-.085-.34v-.128a1.412,1.412,0,0,0-.128-.425.353.353,0,0,0-.362-.191.266.266,0,0,0-.234.085.638.638,0,0,0-.064.34V69.6a6.425,6.425,0,0,0,.064,1.106c.042.213.128.319.234.34h.021v.021a.66.66,0,0,1,.276.128c.085.064.106.17.106.362a.651.651,0,0,1-.085.362.625.625,0,0,1-.255.213q-.223.064-.574.128a4.376,4.376,0,0,1-.766.043,2.487,2.487,0,0,1-1.064-.149.56.56,0,0,1-.277-.553.639.639,0,0,1,.085-.383.666.666,0,0,1,.234-.191.638.638,0,0,0,.234-.447,8.087,8.087,0,0,0,.064-1.255l.021-1.808v-.3c0-.7-.021-1.149-.043-1.383a.543.543,0,0,0-.234-.447c-.043-.043-.085-.064-.106-.085a.294.294,0,0,1-.085-.064.213.213,0,0,1-.085-.149.427.427,0,0,1-.021-.17.594.594,0,0,1,.17-.425.544.544,0,0,1,.4-.17h.191c.085,0,.149.021.255.021a2.631,2.631,0,0,1,.383.043,2.311,2.311,0,0,0,.383.021c.128,0,.255.021.4.021h1.234a3.188,3.188,0,0,0,.425-.043l.425-.064h.021a.021.021,0,0,0,.021-.021h.042c.106,0,.213.106.3.3a2.8,2.8,0,0,1,.191.638l.064.383a1.837,1.837,0,0,1,.021.319,1.276,1.276,0,0,1-.106.553c-.085.149-.17.213-.277.213a.309.309,0,0,1-.149-.043.532.532,0,0,1-.213-.234Z" transform="translate(-2322.372 6505.509)" fill="#fff"/>
    <path id="Path_36703" data-name="Path 36703" d="M458.963,65.014l-.149.128a.83.83,0,0,0-.213.6,15.051,15.051,0,0,0-.064,1.745v.447l.021,1.447a3.86,3.86,0,0,0,.064.872.574.574,0,0,0,.213.362h.021a.021.021,0,0,1,.021.021.6.6,0,0,1,.191.213.713.713,0,0,1-.234.808,1.833,1.833,0,0,1-.6.234,1.379,1.379,0,0,1-.4.043h-.319a1.925,1.925,0,0,1-.957-.17.534.534,0,0,1-.319-.511.471.471,0,0,1,.021-.191.27.27,0,0,1,.085-.149.3.3,0,0,0,.064-.085c.021-.043.043-.043.085-.064a.9.9,0,0,0,.213-.425c.021-.17.043-.553.064-1.106l.021-1.425v-.319a13.535,13.535,0,0,0-.064-1.659,1.109,1.109,0,0,0-.277-.638.567.567,0,0,1-.106-.128c-.021-.043-.064-.064-.085-.106a.3.3,0,0,1-.043-.128c0-.043-.021-.085-.021-.149a.491.491,0,0,1,.277-.468,2.044,2.044,0,0,1,.6-.234,4.086,4.086,0,0,1,.468-.064,2.1,2.1,0,0,1,.319-.021,1.9,1.9,0,0,1,.957.191.638.638,0,0,1,.34.553.763.763,0,0,1-.043.234l-.149.149Z" transform="translate(-2340.885 6505.838)" fill="#fff"/>
    <path id="Path_36704" data-name="Path 36704" d="M475.4,71.076l-2.213-3.042a.677.677,0,0,0-.213-.213.426.426,0,0,0-.17-.085c-.085,0-.128.085-.17.234a3.105,3.105,0,0,0-.064.723,5.959,5.959,0,0,0,.064,1.085.638.638,0,0,0,.234.426c.021,0,.021.021.043.021l.021.021a.587.587,0,0,1,.149.191.8.8,0,0,1,.043.255.687.687,0,0,1-.277.574,1.527,1.527,0,0,1-.851.191,1.243,1.243,0,0,1-.745-.191.687.687,0,0,1-.277-.574.607.607,0,0,1,.085-.362,1.912,1.912,0,0,1,.191-.213,1.128,1.128,0,0,0,.213-.7c.043-.362.043-1.021.043-2,0-.532-.021-1.021-.043-1.447a3.7,3.7,0,0,0-.128-.915.471.471,0,0,0-.106-.234l-.149-.149a.021.021,0,0,1-.021-.021l-.191-.191a.425.425,0,0,1-.085-.3.638.638,0,0,1,.277-.6,2.259,2.259,0,0,1,1.021-.17c.149,0,.277.021.362.021a.638.638,0,0,1,.234.128.373.373,0,0,1,.106.085.9.9,0,0,1,.106.149l1.851,2.51a1.814,1.814,0,0,0,.213.277c.064.064.106.085.149.085a.175.175,0,0,0,.149-.149,2.4,2.4,0,0,0,.043-.489,9.349,9.349,0,0,0-.043-1,.6.6,0,0,0-.234-.383.551.551,0,0,1-.213-.234.618.618,0,0,1-.064-.3.721.721,0,0,1,.213-.574,1.5,1.5,0,0,1,.808-.149,1.821,1.821,0,0,1,.893.149.574.574,0,0,1,.234.553.81.81,0,0,1-.064.34.735.735,0,0,1-.213.234.716.716,0,0,0-.255.468,8.273,8.273,0,0,0-.064,1.255v2.957a8.7,8.7,0,0,1-.106,1.617c-.064.3-.192.447-.34.447a.343.343,0,0,1-.234-.106c-.064-.064-.128-.149-.191-.213,0-.021-.021-.021-.021-.043Z" transform="translate(-2352.368 6506.242)" fill="#fff"/>
    <path id="Path_36705" data-name="Path 36705" d="M504.615,67.383l.7,2.3a1.141,1.141,0,0,1,.064.213,1.054,1.054,0,0,0,.064.149c.043.064.064.128.106.149a1.04,1.04,0,0,0,.149.064.311.311,0,0,1,.191.128.531.531,0,0,1,.064.277.617.617,0,0,1-.319.6,2.242,2.242,0,0,1-1.064.17h-.128a6.433,6.433,0,0,1-.659-.043c-.213-.021-.362-.043-.468-.064a.891.891,0,0,1-.3-.191.523.523,0,0,1-.106-.362.793.793,0,0,1,.043-.255.491.491,0,0,1,.149-.149c.021-.021.043-.021.043-.043a.075.075,0,0,0,.043-.021.192.192,0,0,0,.128-.128.229.229,0,0,0,.042-.17.5.5,0,0,0-.106-.34.445.445,0,0,0-.319-.128c-.128-.021-.255-.021-.383-.043a2.316,2.316,0,0,0-.383-.021,1.413,1.413,0,0,0-.659.106c-.106.064-.149.234-.149.489a.248.248,0,0,0,.043.149.444.444,0,0,0,.128.085l.021.021.021.021a.891.891,0,0,1,.17.128.332.332,0,0,1,.064.255.555.555,0,0,1-.277.511,1.577,1.577,0,0,1-.808.17,1.778,1.778,0,0,1-.872-.149.521.521,0,0,1-.255-.489.944.944,0,0,1,.042-.277.33.33,0,0,1,.17-.17h.021l.021-.021a.764.764,0,0,0,.213-.149.475.475,0,0,0,.149-.255,1.1,1.1,0,0,0,.149-.383c.043-.17.106-.362.191-.617l.532-1.766c.17-.553.3-.979.362-1.276a6.9,6.9,0,0,0,.128-.851v-.255a2.317,2.317,0,0,1,.213-1.085.666.666,0,0,1,.617-.362.851.851,0,0,1,.553.234,2.228,2.228,0,0,1,.468.681,10.4,10.4,0,0,1,.489,1.255A10.576,10.576,0,0,1,504.615,67.383Zm-1.851.723c.064,0,.128,0,.149-.021a.111.111,0,0,0,.043-.085,2.438,2.438,0,0,0-.043-.3c-.043-.128-.085-.255-.128-.4l-.064-.191a.426.426,0,0,0-.085-.17c-.064-.128-.106-.234-.149-.3s-.085-.128-.106-.128a.117.117,0,0,0-.106.064.833.833,0,0,0-.085.191c0,.021-.021.043-.021.064a.079.079,0,0,1-.021.064.308.308,0,0,0-.043.149c0,.064-.043.149-.043.213s-.021.064-.042.085a.127.127,0,0,0-.021.085,1.5,1.5,0,0,0-.064.3.957.957,0,0,0-.021.234c0,.043,0,.085.043.106a.231.231,0,0,0,.128.021Z" transform="translate(-2375.048 6506.298)" fill="#fff"/>
    <path id="Path_36706" data-name="Path 36706" d="M534.5,71.076l-2.212-3.042a1,1,0,0,0-.213-.213.425.425,0,0,0-.17-.085c-.085,0-.128.085-.17.234a3.1,3.1,0,0,0-.064.723,5.987,5.987,0,0,0,.064,1.085.638.638,0,0,0,.234.426c.021,0,.021.021.042.021l.021.021a.59.59,0,0,1,.149.191.8.8,0,0,1,.043.255.687.687,0,0,1-.276.574,1.489,1.489,0,0,1-.851.191,1.242,1.242,0,0,1-.745-.191.687.687,0,0,1-.277-.574.608.608,0,0,1,.085-.362,1.9,1.9,0,0,1,.192-.213,1.287,1.287,0,0,0,.213-.7c.043-.362.043-1.021.043-2,0-.532-.021-1.021-.043-1.447a3.706,3.706,0,0,0-.128-.915.472.472,0,0,0-.106-.234l-.149-.149a.021.021,0,0,1-.021-.021l-.192-.191a.426.426,0,0,1-.085-.3.638.638,0,0,1,.277-.6,2.259,2.259,0,0,1,1.021-.17c.149,0,.277.021.362.021a.638.638,0,0,1,.234.128.373.373,0,0,1,.106.085c.021.043.064.085.106.149l1.851,2.51a1.822,1.822,0,0,0,.213.277c.064.064.106.085.149.085a.175.175,0,0,0,.149-.149,1.462,1.462,0,0,0,.043-.489,9.349,9.349,0,0,0-.043-1,.6.6,0,0,0-.234-.383.551.551,0,0,1-.213-.234.616.616,0,0,1-.064-.3.658.658,0,0,1,.213-.574,1.5,1.5,0,0,1,.809-.149,1.821,1.821,0,0,1,.893.149.585.585,0,0,1,.255.553.811.811,0,0,1-.064.34.737.737,0,0,1-.213.234.718.718,0,0,0-.255.468,8.257,8.257,0,0,0-.064,1.255v2.957a8.707,8.707,0,0,1-.106,1.617c-.064.3-.17.447-.34.447a.342.342,0,0,1-.234-.106c-.064-.064-.128-.149-.192-.213,0-.021-.021-.021-.021-.043-.021.085-.021.085-.021.043Z" transform="translate(-2398.894 6506.242)" fill="#fff"/>
    <path id="Path_36707" data-name="Path 36707" d="M564.5,64.307s.021.021.021,0a.021.021,0,0,0,.021-.021c.021,0,.043-.021.085-.021s.043-.021.064-.021c.191,0,.34.191.489.574a4.212,4.212,0,0,1,.213,1.34,1.625,1.625,0,0,1-.192.851.576.576,0,0,1-.51.319.374.374,0,0,1-.319-.191,3.1,3.1,0,0,1-.255-.468c-.021-.064-.042-.106-.064-.17a1.461,1.461,0,0,1-.064-.17,3.342,3.342,0,0,0-.383-.66.825.825,0,0,0-.681-.3.7.7,0,0,0-.617.425,2.553,2.553,0,0,0-.213,1.17v.064a4.525,4.525,0,0,0,.425,1.936,1.254,1.254,0,0,0,1.149.872,1.036,1.036,0,0,0,.532-.128,2.656,2.656,0,0,0,.362-.255,1.444,1.444,0,0,0,.255-.255c.064-.085.106-.128.17-.128s.149.064.213.191a.986.986,0,0,1,.085.447v.255a1.243,1.243,0,0,1-.043.277,2.8,2.8,0,0,1-.213.638.662.662,0,0,1-.362.362,2.473,2.473,0,0,0-.319.128c-.085.043-.191.106-.277.149-.021.021-.043.021-.043.043a.066.066,0,0,1-.043.021,2.421,2.421,0,0,1-.4.213,1.375,1.375,0,0,1-.553.085A2.366,2.366,0,0,1,561.1,70.69a4.746,4.746,0,0,1-.808-2.808,4.941,4.941,0,0,1,.83-2.851,2.336,2.336,0,0,1,1.894-1.234,1.4,1.4,0,0,1,.532.085,1.3,1.3,0,0,1,.426.191c.106.064.213.128.3.191a.552.552,0,0,0,.213.085h.042c.021,0,.021-.021.043-.021-.085,0-.085-.021-.064-.021Z" transform="translate(-2422.831 6505.905)" fill="#fff"/>
    <path id="Path_36708" data-name="Path 36708" d="M587.827,65.014l-.149.128a.829.829,0,0,0-.213.6,15.024,15.024,0,0,0-.064,1.745v1.893a3.86,3.86,0,0,0,.064.872.687.687,0,0,0,.213.362h.021a.021.021,0,0,1,.021.021.4.4,0,0,1,.17.213.713.713,0,0,1-.234.808,1.834,1.834,0,0,1-.6.234,1.379,1.379,0,0,1-.4.043h-.319a1.925,1.925,0,0,1-.957-.17.534.534,0,0,1-.319-.511.468.468,0,0,1,.021-.191.45.45,0,0,1,.064-.149.292.292,0,0,0,.064-.085.292.292,0,0,1,.085-.064.9.9,0,0,0,.213-.426,8.83,8.83,0,0,0,.064-1.106V67.482a13.559,13.559,0,0,0-.064-1.659,1.108,1.108,0,0,0-.277-.638.566.566,0,0,1-.106-.128.376.376,0,0,1-.085-.106.3.3,0,0,1-.042-.128v-.149a.491.491,0,0,1,.277-.468,2.045,2.045,0,0,1,.6-.234,4.087,4.087,0,0,1,.468-.064,2.1,2.1,0,0,1,.319-.021,1.9,1.9,0,0,1,.957.191.638.638,0,0,1,.34.553.759.759,0,0,1-.042.234.213.213,0,0,1-.085.149Z" transform="translate(-2442.282 6505.838)" fill="#fff"/>
    <path id="Path_36709" data-name="Path 36709" d="M604.111,67.383l.7,2.3c.021.085.043.149.064.213a1.02,1.02,0,0,0,.064.149c.042.064.064.128.106.149a1.032,1.032,0,0,0,.149.064.311.311,0,0,1,.191.128.532.532,0,0,1,.064.277.617.617,0,0,1-.319.6,2.242,2.242,0,0,1-1.064.17h-.128a6.439,6.439,0,0,1-.66-.043c-.213-.021-.362-.043-.468-.064a.891.891,0,0,1-.3-.191.523.523,0,0,1-.106-.362.8.8,0,0,1,.043-.255.328.328,0,0,1,.149-.149c.021-.021.043-.021.043-.043a.075.075,0,0,0,.043-.021.249.249,0,0,0,.128-.128.23.23,0,0,0,.043-.17.5.5,0,0,0-.106-.34.445.445,0,0,0-.319-.128c-.128-.021-.255-.021-.383-.043a2.316,2.316,0,0,0-.383-.021,1.413,1.413,0,0,0-.659.106.639.639,0,0,0-.149.489.249.249,0,0,0,.042.149.446.446,0,0,0,.128.085l.021.021.021.021a.888.888,0,0,1,.17.128.409.409,0,0,1,.064.255.555.555,0,0,1-.277.511,1.577,1.577,0,0,1-.808.17,1.779,1.779,0,0,1-.872-.149.5.5,0,0,1-.255-.489.945.945,0,0,1,.043-.277.33.33,0,0,1,.17-.17h.021l.021-.021a.763.763,0,0,0,.213-.149.474.474,0,0,0,.149-.255,1.1,1.1,0,0,0,.149-.383c.042-.17.106-.362.17-.617l.532-1.766c.17-.553.3-.979.362-1.276a6.879,6.879,0,0,0,.128-.851v-.255a2.318,2.318,0,0,1,.213-1.085.666.666,0,0,1,.617-.362.851.851,0,0,1,.553.234,2.228,2.228,0,0,1,.468.681,10.378,10.378,0,0,1,.489,1.255A9.185,9.185,0,0,1,604.111,67.383Zm-1.851.723c.064,0,.128,0,.149-.021a.11.11,0,0,0,.043-.085,2.414,2.414,0,0,0-.043-.3c-.042-.128-.064-.255-.128-.4l-.064-.191a.425.425,0,0,0-.085-.17c-.064-.128-.107-.234-.149-.3s-.085-.128-.106-.128a.2.2,0,0,0-.106.064.4.4,0,0,0-.085.191c0,.021-.021.043-.021.064a.078.078,0,0,1-.021.064.31.31,0,0,0-.043.149.754.754,0,0,0-.042.213c-.021.043-.021.064-.043.085a.128.128,0,0,0-.021.085.749.749,0,0,0-.064.3.951.951,0,0,0-.021.234c0,.043,0,.085.043.106a.23.23,0,0,0,.128.021l.681.021Z" transform="translate(-2453.376 6506.298)" fill="#fff"/>
    <path id="Path_36710" data-name="Path 36710" d="M632.161,66.677v2.6a4.4,4.4,0,0,0,.106,1.191c.064.17.234.255.489.255a.868.868,0,0,0,.681-.277,1.748,1.748,0,0,0,.34-.894.6.6,0,0,1,.085-.277.213.213,0,0,1,.17-.085c.128,0,.234.085.319.277a1.555,1.555,0,0,1,.128.681,2.591,2.591,0,0,1-.021.383,4.711,4.711,0,0,1-.085.489,3.826,3.826,0,0,1-.255.745c-.106.234-.234.34-.362.34a.588.588,0,0,1-.191-.021c-.064-.021-.128-.021-.191-.043h-.021a.021.021,0,0,1-.021-.021c-.064-.021-.128-.021-.17-.043a.53.53,0,0,0-.17-.021h-2.6a.587.587,0,0,1-.383-.106.438.438,0,0,1-.128-.362.533.533,0,0,1,.043-.213c.043-.043.064-.106.128-.149.021-.021.042-.043.064-.043l.064-.064a1.189,1.189,0,0,0,.213-.319,1.814,1.814,0,0,0,.085-.681V66.337a3.615,3.615,0,0,0-.043-.638.379.379,0,0,0-.191-.255,1.231,1.231,0,0,0-.149-.085c-.042-.021-.064-.043-.106-.064a1.069,1.069,0,0,1-.149-.17.638.638,0,0,1-.043-.213.672.672,0,0,1,.383-.617,2.219,2.219,0,0,1,1.106-.213,3.051,3.051,0,0,1,1.191.17.581.581,0,0,1,.34.6.361.361,0,0,1-.085.277,1.273,1.273,0,0,1-.17.17c-.021.021-.042.021-.042.043a.066.066,0,0,1-.043.021.466.466,0,0,0-.17.319C632.182,65.784,632.161,66.145,632.161,66.677Z" transform="translate(-2477.554 6505.685)" fill="#fff"/>
    <path id="Path_36711" data-name="Path 36711" d="M662.186,71.285h-.234c-.043,0-.106-.021-.149-.021h-.489c-.106,0-.234.021-.341.021-.149,0-.276.021-.425.021s-.3.021-.447.021a.4.4,0,0,1-.362-.17.684.684,0,0,1-.149-.425.349.349,0,0,1,.043-.213.462.462,0,0,1,.106-.17c.021-.043.064-.064.085-.085a.293.293,0,0,1,.064-.085,1.65,1.65,0,0,0,.149-.34,2.449,2.449,0,0,0,.043-.447V69.2c.021-.277.021-.574.043-.851s.021-.574.043-.851V65.8a7.082,7.082,0,0,0-.043-.894.639.639,0,0,0-.255-.362.021.021,0,0,1-.021-.021.549.549,0,0,1-.191-.191.589.589,0,0,1-.064-.277.53.53,0,0,1,.149-.4.466.466,0,0,1,.362-.149h.255c.085,0,.17.021.277.021s.17.021.255.021h.638c.128,0,.255-.021.383-.021s.255-.021.383-.021h.553c.064,0,.128.021.191.021a1.73,1.73,0,0,1,.915.426,1.686,1.686,0,0,1,.425,1.319,2.042,2.042,0,0,1-.085.681,1.936,1.936,0,0,1-.192.468,2.911,2.911,0,0,1-.17.3.553.553,0,0,0-.085.213.192.192,0,0,0,.021.106.294.294,0,0,0,.064.085l.021.021a.021.021,0,0,1,.021.021,1.607,1.607,0,0,1,.574.7,2.34,2.34,0,0,1,.213,1,2.815,2.815,0,0,1-.532,1.808,1.7,1.7,0,0,1-1.4.681h-.149a.53.53,0,0,1-.17-.021h-.149c-.042,0-.106-.021-.17-.021C662.208,71.285,662.186,71.285,662.186,71.285Zm-.276-6.212v1.17a1.641,1.641,0,0,0,.043.4.189.189,0,0,0,.17.106.426.426,0,0,0,.4-.255,1.932,1.932,0,0,0,.128-.808,1.848,1.848,0,0,0-.149-.851.425.425,0,0,0-.383-.3c-.085,0-.128.043-.17.128A1.641,1.641,0,0,0,661.91,65.073Zm0,3.276v.532a3.426,3.426,0,0,0,.085,1,.291.291,0,0,0,.277.255.468.468,0,0,0,.426-.255,1.7,1.7,0,0,0,.149-.745,2.2,2.2,0,0,0-.149-.936.5.5,0,0,0-.468-.319.275.275,0,0,0-.234.106A.532.532,0,0,0,661.91,68.349Z" transform="translate(-2501.005 6506.141)" fill="#fff"/>
    <path id="Path_36712" data-name="Path 36712" d="M685.741,68.166V65.783c0-.6-.021-.979-.043-1.17a.638.638,0,0,0-.234-.425.376.376,0,0,0-.107-.085c-.042-.021-.042-.043-.064-.085a.342.342,0,0,1-.085-.149.466.466,0,0,1-.021-.17.579.579,0,0,1,.213-.511,1.015,1.015,0,0,1,.617-.17.87.87,0,0,1,.234.021c.064,0,.149.021.213.021s.149.021.213.021.149.021.234.021a2.189,2.189,0,0,0,.362-.021c.128-.021.234-.021.362-.043a96.232,96.232,0,0,1,.7-.043,1.7,1.7,0,0,1,1.3.553,2.24,2.24,0,0,1,.489,1.489,2.975,2.975,0,0,1-.106.851,2.843,2.843,0,0,1-.255.511c-.085.106-.149.191-.213.255s-.106.128-.149.17v.064a.272.272,0,0,0,.021.128.3.3,0,0,0,.064.085c.021,0,.021.021.043.021s.021.021.042.021a1.277,1.277,0,0,1,.617.787,5.946,5.946,0,0,1,.213,1.213,1.516,1.516,0,0,0,.085.468.426.426,0,0,0,.191.191,1.158,1.158,0,0,1,.191.149.549.549,0,0,1,.085.3.721.721,0,0,1-.319.617,1.419,1.419,0,0,1-.83.234,1.183,1.183,0,0,1-.638-.149,1.23,1.23,0,0,1-.426-.447,3.34,3.34,0,0,1-.213-.553c-.042-.213-.106-.425-.128-.638-.021-.043-.021-.106-.043-.149a.365.365,0,0,1-.021-.149,7.944,7.944,0,0,0-.234-.957c-.085-.277-.234-.4-.447-.4a.17.17,0,0,0-.192.128,3.151,3.151,0,0,0-.042.617,9.681,9.681,0,0,0,.042,1.042.669.669,0,0,0,.213.4.836.836,0,0,1,.17.213.588.588,0,0,1,.064.277.54.54,0,0,1-.3.532,2.5,2.5,0,0,1-1.042.149,2.218,2.218,0,0,1-1.043-.191.655.655,0,0,1-.34-.6A.386.386,0,0,1,685.23,70a.443.443,0,0,1,.085-.128l.064-.064a.3.3,0,0,0,.064-.085,1.526,1.526,0,0,0,.191-.447A5.408,5.408,0,0,0,685.741,68.166Zm1.7-3.468-.043,1.319a.587.587,0,0,0,.043.3.168.168,0,0,0,.17.106.489.489,0,0,0,.468-.255,1.606,1.606,0,0,0,.149-.808,1.977,1.977,0,0,0-.128-.83.4.4,0,0,0-.383-.277.2.2,0,0,0-.191.106A.757.757,0,0,0,687.443,64.7Z" transform="translate(-2521.155 6506.536)" fill="#fff"/>
    <path id="Path_36713" data-name="Path 36713" d="M715.991,62.7a2.466,2.466,0,0,1,1,.213,2.366,2.366,0,0,1,.787.638,4.184,4.184,0,0,1,.745,1.4,6.025,6.025,0,0,1,.319,1.745v.255a4.584,4.584,0,0,1-.83,2.766,2.481,2.481,0,0,1-2.042,1.128,2.223,2.223,0,0,1-1.893-1.17,5.2,5.2,0,0,1-.787-2.893,4.865,4.865,0,0,1,.787-2.83A2.292,2.292,0,0,1,715.991,62.7Zm-.7,1.979a1.864,1.864,0,0,0-.17.894c0,.17.021.425.043.7a8.1,8.1,0,0,0,.149.915,8.214,8.214,0,0,0,.4,1.34c.17.4.383.6.617.6a.492.492,0,0,0,.447-.319,1.983,1.983,0,0,0,.17-.872c0-.191-.021-.425-.043-.723a6.652,6.652,0,0,0-.128-.872,5.8,5.8,0,0,0-.4-1.383c-.17-.425-.4-.638-.66-.638C715.565,64.317,715.416,64.445,715.289,64.679Z" transform="translate(-2543.278 6506.769)" fill="#fff"/>
    <path id="Path_36714" data-name="Path 36714" d="M745.094,64.072c-.042.064-.064.106-.106.17a1.841,1.841,0,0,0-.149.213c-.042.064-.106.149-.149.213a1.137,1.137,0,0,0-.106.234.242.242,0,0,0-.064.17c0,.064-.021.106-.021.17v.128a.554.554,0,0,0,.064.234,2.471,2.471,0,0,0,.17.319l1.383,2.468a2.89,2.89,0,0,0,.17.3,1.977,1.977,0,0,1,.106.17l.043.043c.021.021.021.043.043.043a.075.075,0,0,0,.043.021.066.066,0,0,0,.043.021.757.757,0,0,1,.3.277.81.81,0,0,1,.085.4.6.6,0,0,1-.149.447.549.549,0,0,1-.426.149H744.86a.162.162,0,0,1-.085-.043,1.18,1.18,0,0,1-.128-.17c-.042-.085-.106-.191-.17-.34-.042-.085-.085-.213-.17-.383s-.191-.362-.3-.574a1.045,1.045,0,0,1-.064-.149.445.445,0,0,0-.085-.128,3.9,3.9,0,0,0-.319-.532c-.106-.149-.191-.234-.255-.234s-.106.064-.149.17a1.3,1.3,0,0,0-.064.468,2.769,2.769,0,0,0,.043.489.671.671,0,0,0,.149.277l.106.106c.021.043.043.064.064.106a1.524,1.524,0,0,1,.064.17.59.59,0,0,1,.021.191.534.534,0,0,1-.319.511,2.617,2.617,0,0,1-1.064.149,2.376,2.376,0,0,1-1.043-.149.525.525,0,0,1-.276-.532,1.067,1.067,0,0,1,.043-.277,1.428,1.428,0,0,1,.149-.234,1.42,1.42,0,0,0,.234-.723,18.94,18.94,0,0,0,.064-1.893c0-.617,0-1.085-.021-1.383s-.021-.574-.043-.808v-.085a1.276,1.276,0,0,0-.085-.383,2.368,2.368,0,0,0-.128-.234l-.043-.043s-.043-.043-.043-.064c-.043-.043-.064-.106-.106-.149s-.043-.149-.043-.255a.8.8,0,0,1,.17-.532.9.9,0,0,1,.553-.255,2.908,2.908,0,0,1,.4-.043,2.064,2.064,0,0,1,.362-.021,1.646,1.646,0,0,1,.851.17.638.638,0,0,1,.255.6.456.456,0,0,1-.043.234.425.425,0,0,1-.085.17c-.021.043-.043.064-.043.085a.111.111,0,0,0-.043.085,2.5,2.5,0,0,0-.149.425,2,2,0,0,0-.043.532.946.946,0,0,0,.043.383c.021.085.064.128.106.128h.043a.637.637,0,0,0,.192-.213,6.189,6.189,0,0,0,.383-.723c.043-.106.085-.191.106-.255a.647.647,0,0,0,.021-.191.313.313,0,0,0-.021-.149.316.316,0,0,1-.021-.149,1.342,1.342,0,0,1-.043-.149.427.427,0,0,1-.021-.149.638.638,0,0,1,.3-.6,1.957,1.957,0,0,1,1-.17,1.565,1.565,0,0,1,.915.17.638.638,0,0,1,.255.574.839.839,0,0,1-.106.425.351.351,0,0,1-.319.17,1.523,1.523,0,0,0-.362.021.291.291,0,0,0-.17.106c-.021.043-.043.064-.064.106A.4.4,0,0,0,745.094,64.072Z" transform="translate(-2564.935 6507.098)" fill="#fff"/>
    <path id="Path_36715" data-name="Path 36715" d="M770.751,62.613h2.659a1.377,1.377,0,0,0,.447-.106c.021,0,.064-.021.085-.021a.161.161,0,0,0,.085-.043c.021-.021.021-.021.043-.021s.021-.021.043-.021h.043c.149,0,.3.17.4.468a3.318,3.318,0,0,1,.17,1.085,1.306,1.306,0,0,1-.106.574.31.31,0,0,1-.3.213.26.26,0,0,1-.191-.064.763.763,0,0,1-.106-.191.3.3,0,0,1-.043-.128c0-.043-.043-.085-.064-.149a.9.9,0,0,0-.34-.362,1.576,1.576,0,0,0-.808-.17.71.71,0,0,0-.489.128.807.807,0,0,0-.128.532v.957c0,.234.021.383.085.447s.17.085.383.085a.251.251,0,0,0,.255-.191,2.5,2.5,0,0,0,.085-.426v-.021c.021-.149.042-.3.064-.425s.106-.17.234-.17.255.149.319.447a4.983,4.983,0,0,1,.106,1.255,5.193,5.193,0,0,1-.128,1.3c-.085.319-.213.489-.362.489a.162.162,0,0,1-.17-.128q-.032-.128-.064-.319c0-.021-.021-.043-.021-.064v-.064a1.275,1.275,0,0,0-.128-.4c-.064-.128-.17-.17-.362-.17a.189.189,0,0,0-.213.17,1.913,1.913,0,0,0-.064.6,4.8,4.8,0,0,0,.106,1.319c.064.149.276.234.6.234a1.5,1.5,0,0,0,.893-.213,1.453,1.453,0,0,0,.468-.808c.021-.085.043-.149.064-.213a1.033,1.033,0,0,1,.064-.149.589.589,0,0,1,.128-.17.213.213,0,0,1,.149-.043c.106,0,.192.064.255.213a1.346,1.346,0,0,1,.106.553,1.609,1.609,0,0,1-.043.4c-.021.17-.064.362-.106.574a6.123,6.123,0,0,1-.234.745c-.085.213-.192.34-.3.34a.724.724,0,0,1-.213-.021c-.064-.021-.128-.021-.213-.043s-.149-.021-.213-.043a.722.722,0,0,0-.213-.021h-3.149a.387.387,0,0,1-.3-.128.564.564,0,0,1-.106-.362.692.692,0,0,1,.043-.255l.128-.128a.074.074,0,0,0,.043-.021.075.075,0,0,1,.043-.021,1.179,1.179,0,0,0,.128-.17,1.357,1.357,0,0,0,.107-.319c.043-.3.064-.638.085-1s.021-.808.021-1.3c0-.723-.021-1.319-.043-1.787a4.224,4.224,0,0,0-.128-1,.344.344,0,0,0-.085-.149.374.374,0,0,0-.106-.085.075.075,0,0,0-.043-.021c-.021,0-.021-.021-.043-.021a.336.336,0,0,1-.149-.149.5.5,0,0,1-.043-.255.562.562,0,0,1,.149-.468,1.992,1.992,0,0,1,.723-.106Z" transform="translate(-2587.826 6507.005)" fill="#fff"/>
    <path id="Path_36716" data-name="Path 36716" d="M795.32,68.166V65.783c0-.6-.021-.979-.042-1.17a.639.639,0,0,0-.234-.425.373.373,0,0,0-.106-.085c-.042-.021-.064-.043-.064-.085a.194.194,0,0,1-.064-.149c0-.064-.021-.106-.021-.17a.578.578,0,0,1,.213-.511,1.015,1.015,0,0,1,.617-.17.873.873,0,0,1,.234.021c.064,0,.149.021.213.021s.149.021.213.021.149.021.234.021a2.187,2.187,0,0,0,.362-.021c.128-.021.234-.021.362-.043a2.065,2.065,0,0,1,.362-.021,1.946,1.946,0,0,1,.362-.021,1.7,1.7,0,0,1,1.3.553,2.241,2.241,0,0,1,.489,1.489,2.981,2.981,0,0,1-.106.851,2.839,2.839,0,0,1-.255.511c-.085.106-.149.191-.213.255s-.106.128-.149.17v.064a.269.269,0,0,0,.021.128.3.3,0,0,0,.064.085c.021,0,.021.021.043.021s.021.021.043.021a1.276,1.276,0,0,1,.617.787,5.934,5.934,0,0,1,.213,1.213,1.514,1.514,0,0,0,.085.468.425.425,0,0,0,.192.191,1.165,1.165,0,0,1,.191.149.551.551,0,0,1,.085.3.721.721,0,0,1-.319.617,1.419,1.419,0,0,1-.83.234,1.183,1.183,0,0,1-.638-.149,1.03,1.03,0,0,1-.4-.447,3.346,3.346,0,0,1-.213-.553c-.043-.213-.106-.425-.128-.638-.021-.043-.021-.106-.042-.149a.359.359,0,0,1-.021-.149,7.932,7.932,0,0,0-.234-.957c-.085-.277-.234-.4-.447-.4a.17.17,0,0,0-.191.128,3.156,3.156,0,0,0-.043.617,9.713,9.713,0,0,0,.043,1.042.667.667,0,0,0,.213.4.837.837,0,0,1,.17.213.591.591,0,0,1,.064.277.54.54,0,0,1-.3.532,2.5,2.5,0,0,1-1.042.149,2.217,2.217,0,0,1-1.043-.191.655.655,0,0,1-.34-.6.386.386,0,0,1,.042-.234.448.448,0,0,1,.085-.128l.064-.064a.3.3,0,0,0,.064-.085,1.523,1.523,0,0,0,.191-.447C795.3,69.059,795.32,68.7,795.32,68.166Zm1.723-3.468L797,66.017a.588.588,0,0,0,.042.3.168.168,0,0,0,.17.106.489.489,0,0,0,.468-.255,1.609,1.609,0,0,0,.149-.808,1.979,1.979,0,0,0-.128-.83.4.4,0,0,0-.383-.277.2.2,0,0,0-.192.106C797.065,64.4,797.044,64.528,797.044,64.7Z" transform="translate(-2607.439 6506.536)" fill="#fff"/>
    <path id="Path_36717" data-name="Path 36717" d="M824.435,63.313h.043a.021.021,0,0,0,.021-.021V63.27h.021a.425.425,0,0,1,.17-.064q.192,0,.383.319a3.041,3.041,0,0,1,.383,1.106,1.961,1.961,0,0,1,.021.34,1.037,1.037,0,0,1-.128.532c-.085.149-.17.234-.3.234a.242.242,0,0,1-.17-.064,1.062,1.062,0,0,1-.17-.149,1.381,1.381,0,0,1-.17-.191,2.263,2.263,0,0,1-.149-.234,3.639,3.639,0,0,0-.383-.425.66.66,0,0,0-.468-.191.4.4,0,0,0-.34.149.577.577,0,0,0-.128.4.638.638,0,0,0,.192.489,2.164,2.164,0,0,0,.489.319c.085.043.17.085.276.149a1.94,1.94,0,0,0,.3.149,2.61,2.61,0,0,1,.851.766,2.427,2.427,0,0,1,.383,1.511,2.979,2.979,0,0,1-.66,2,2.066,2.066,0,0,1-1.681.766h-.192c-.064,0-.128-.021-.191-.021a3.233,3.233,0,0,1-.915-.255,1.2,1.2,0,0,1-.553-.4,1.937,1.937,0,0,1-.191-.489,7.192,7.192,0,0,1-.149-.723,2.115,2.115,0,0,1-.042-.34v-.319a.922.922,0,0,1,.085-.468.245.245,0,0,1,.213-.17c.106,0,.192.064.277.191a1.982,1.982,0,0,1,.213.425,1.031,1.031,0,0,1,.085.234q.027.1.064.191a1.106,1.106,0,0,0,.425.511,1.064,1.064,0,0,0,.6.213h.043a.668.668,0,0,0,.447-.149.532.532,0,0,0,.17-.383.579.579,0,0,0-.149-.426,1.668,1.668,0,0,0-.426-.3c-.085-.043-.191-.106-.3-.17l-.319-.191a2.319,2.319,0,0,1-.362-.277,2.742,2.742,0,0,1-.34-.362,3.04,3.04,0,0,1-.319-.574c-.085-.213-.149-.425-.213-.638-.021-.085-.021-.191-.043-.277a1.208,1.208,0,0,1-.021-.277,3.03,3.03,0,0,1,.6-1.872A1.825,1.825,0,0,1,823.2,63.1a1.874,1.874,0,0,1,.362.043c.106.043.213.064.319.106s.17.064.255.106a.39.39,0,0,0,.192.043c.021,0,.021,0,.042-.021l.064-.064Z" transform="translate(-2628.065 6506.453)" fill="#fff"/>
    <path id="Path_36718" data-name="Path 36718" d="M405,118.5h.6v4.255H405Zm.3,3.681h2.447v.574H405.3Z" transform="translate(-2300.58 6462.84)" fill="#fff"/>
    <path id="Path_36719" data-name="Path 36719" d="M420.9,118.5h.6v.6h-.6Zm0,1.213h.6v3.042h-.6Z" transform="translate(-2313.097 6462.84)" fill="#fff"/>
    <path id="Path_36720" data-name="Path 36720" d="M428.188,126.973a1.127,1.127,0,0,1-.447-.447,1.461,1.461,0,0,1-.149-.723v-.511a1.713,1.713,0,0,1,.149-.7,1.127,1.127,0,0,1,.447-.447,1.427,1.427,0,0,1,.7-.149,1.513,1.513,0,0,1,.447.064,1.051,1.051,0,0,1,.383.17,1.063,1.063,0,0,1,.277.255l-.425.383a1.035,1.035,0,0,0-.3-.234.7.7,0,0,0-.362-.085.708.708,0,0,0-.532.191.76.76,0,0,0-.192.553v.511a.76.76,0,0,0,.192.553.708.708,0,0,0,.532.191.7.7,0,0,0,.362-.085,1.035,1.035,0,0,0,.3-.234l.425.426a1.04,1.04,0,0,1-.277.255,1.6,1.6,0,0,1-.383.17,1.62,1.62,0,0,1-.447.064A2.127,2.127,0,0,1,428.188,126.973Z" transform="translate(-2318.364 6458.516)" fill="#fff"/>
    <path id="Path_36721" data-name="Path 36721" d="M442.291,126.877a1.064,1.064,0,0,1-.447-.468,1.607,1.607,0,0,1-.149-.745v-.34a1.7,1.7,0,0,1,.149-.766,1.112,1.112,0,0,1,.447-.489,1.427,1.427,0,0,1,.7-.17,1.144,1.144,0,0,1,.659.191,1.081,1.081,0,0,1,.4.553,2.571,2.571,0,0,1,.149.872v.191h-2.042v-.489h1.489a1.019,1.019,0,0,0-.191-.574.566.566,0,0,0-.447-.213.719.719,0,0,0-.532.213.953.953,0,0,0-.191.638v.383a.7.7,0,0,0,.766.787,1.08,1.08,0,0,0,.362-.064.653.653,0,0,0,.319-.213l.383.383a1.652,1.652,0,0,1-.511.34,1.4,1.4,0,0,1-.575.128A1.3,1.3,0,0,1,442.291,126.877Z" transform="translate(-2329.467 6458.59)" fill="#fff"/>
    <path id="Path_36722" data-name="Path 36722" d="M457.1,123.958h.6V127h-.6Zm1.851,1.191a.681.681,0,0,0-.17-.489.661.661,0,0,0-.468-.17.7.7,0,0,0-.447.149.593.593,0,0,0-.17.425l-.064-.6a1.021,1.021,0,0,1,.362-.425.851.851,0,0,1,.511-.149.951.951,0,0,1,.766.319,1.308,1.308,0,0,1,.277.915v1.851h-.6Z" transform="translate(-2341.596 6458.595)" fill="#fff"/>
    <path id="Path_36723" data-name="Path 36723" d="M472.53,127.219a3.668,3.668,0,0,1-.447-.149,4.005,4.005,0,0,1-.383-.255l.362-.425a1.9,1.9,0,0,0,.489.277,1.319,1.319,0,0,0,.489.085,1.173,1.173,0,0,0,.532-.106.332.332,0,0,0,.17-.319c0-.106-.021-.17-.106-.213a.787.787,0,0,0-.234-.106c-.106-.021-.234-.021-.4-.043h-.128a3.191,3.191,0,0,1-.511-.085.755.755,0,0,1-.34-.234.789.789,0,0,1-.128-.489.985.985,0,0,1,.128-.532.713.713,0,0,1,.383-.319,1.855,1.855,0,0,1,.66-.106,2.656,2.656,0,0,1,.447.043,1.276,1.276,0,0,1,.4.128,3.436,3.436,0,0,1,.383.213l-.362.425a1.427,1.427,0,0,0-.447-.213,1.588,1.588,0,0,0-.425-.064.762.762,0,0,0-.447.106.385.385,0,0,0-.149.319.213.213,0,0,0,.085.191.637.637,0,0,0,.213.085c.085.021.213.021.383.043h.128a3.383,3.383,0,0,1,.553.085.766.766,0,0,1,.383.255.851.851,0,0,1,.149.553.938.938,0,0,1-.149.553.738.738,0,0,1-.425.319,2.217,2.217,0,0,1-.7.106C472.849,127.283,472.679,127.262,472.53,127.219Z" transform="translate(-2353.09 6458.354)" fill="#fff"/>
    <path id="Path_36724" data-name="Path 36724" d="M487.791,126.877a1.063,1.063,0,0,1-.447-.468,1.607,1.607,0,0,1-.149-.745v-.34a1.7,1.7,0,0,1,.149-.766,1.113,1.113,0,0,1,.447-.489,1.428,1.428,0,0,1,.7-.17,1.145,1.145,0,0,1,.66.191,1.08,1.08,0,0,1,.4.553,2.566,2.566,0,0,1,.149.872v.191h-2.042v-.489h1.489a1.019,1.019,0,0,0-.191-.574.566.566,0,0,0-.447-.213.719.719,0,0,0-.532.213.953.953,0,0,0-.191.638v.383a.7.7,0,0,0,.766.787,1.081,1.081,0,0,0,.362-.064.653.653,0,0,0,.319-.213l.383.383a1.651,1.651,0,0,1-.511.34,1.4,1.4,0,0,1-.575.128A1.3,1.3,0,0,1,487.791,126.877Z" transform="translate(-2365.287 6458.59)" fill="#fff"/>
    <path id="Path_36725" data-name="Path 36725" d="M502.686,122.649a1.021,1.021,0,0,1-.362-.426,1.584,1.584,0,0,1-.128-.66v-.66a1.52,1.52,0,0,1,.128-.66.979.979,0,0,1,.34-.426.938.938,0,0,1,.553-.149.828.828,0,0,1,.489.149.959.959,0,0,1,.362.4l-.064.617a.885.885,0,0,0-.064-.34.426.426,0,0,0-.213-.213.711.711,0,0,0-.319-.064.549.549,0,0,0-.447.191.777.777,0,0,0-.17.511v.66a.776.776,0,0,0,.17.511.549.549,0,0,0,.447.191.513.513,0,0,0,.319-.085.676.676,0,0,0,.213-.213.811.811,0,0,0,.064-.34l.042.638a1.039,1.039,0,0,1-.3.383.768.768,0,0,1-.51.149A1.132,1.132,0,0,1,502.686,122.649Zm1.319-4.149h.6v4.255h-.6Z" transform="translate(-2377.098 6462.84)" fill="#fff"/>
    <path id="Path_36726" data-name="Path 36726" d="M525.941,120.8a.69.69,0,0,0-.192.511.638.638,0,0,0,.213.511.872.872,0,0,0,.6.191,1.126,1.126,0,0,0,.638-.191,1.325,1.325,0,0,0,.4-.574,2.829,2.829,0,0,0,.128-.894h.574a2.91,2.91,0,0,1-.213,1.191,1.69,1.69,0,0,1-.638.745,1.889,1.889,0,0,1-1,.255,1.343,1.343,0,0,1-.681-.149.917.917,0,0,1-.425-.425,1.313,1.313,0,0,1-.149-.66,1.2,1.2,0,0,1,.3-.83,1.246,1.246,0,0,1,.808-.362l.255.511A.93.93,0,0,0,525.941,120.8Zm.277,0a3.1,3.1,0,0,1-.34-.447,1.43,1.43,0,0,1-.213-.489,2.137,2.137,0,0,1-.085-.511,1.236,1.236,0,0,1,.3-.872,1.1,1.1,0,0,1,.851-.3,1.034,1.034,0,0,1,1.128,1.128v.064h-.6v-.064a.529.529,0,0,0-.149-.4.583.583,0,0,0-.4-.149.53.53,0,0,0-.4.149.684.684,0,0,0-.149.426.964.964,0,0,0,.064.34,1.388,1.388,0,0,0,.17.362c.085.128.17.234.255.34l1.957,2.064h-.766Z" transform="translate(-2395.204 6463.094)" fill="#fff"/>
    <path id="Path_36727" data-name="Path 36727" d="M551.6,118.394h.6v4.255h-.6Zm.277,1.893h1.447a.49.49,0,0,0,.3-.085.76.76,0,0,0,.213-.234.884.884,0,0,0,.064-.34.811.811,0,0,0-.064-.34.454.454,0,0,0-.213-.234.532.532,0,0,0-.3-.085h-1.447v-.574H553.3a1.183,1.183,0,0,1,.638.149.918.918,0,0,1,.426.425,1.277,1.277,0,0,1,.149.638,1.49,1.49,0,0,1-.149.638,1.024,1.024,0,0,1-.426.425,1.277,1.277,0,0,1-.638.149h-1.425Zm1.149.447.6-.128,1.085,2.064H554Z" transform="translate(-2415.991 6462.925)" fill="#fff"/>
    <path id="Path_36728" data-name="Path 36728" d="M569.491,126.877a1.064,1.064,0,0,1-.447-.468,1.608,1.608,0,0,1-.149-.745v-.34a1.7,1.7,0,0,1,.149-.766,1.114,1.114,0,0,1,.447-.489,1.428,1.428,0,0,1,.7-.17,1.145,1.145,0,0,1,.66.191,1.081,1.081,0,0,1,.4.553,2.566,2.566,0,0,1,.149.872v.191h-2.042v-.489h1.489a1.018,1.018,0,0,0-.192-.574.566.566,0,0,0-.447-.213.719.719,0,0,0-.532.213.954.954,0,0,0-.191.638v.383a.7.7,0,0,0,.766.787,1.08,1.08,0,0,0,.362-.064.653.653,0,0,0,.319-.213l.383.383a1.65,1.65,0,0,1-.51.34,1.4,1.4,0,0,1-.574.128A1.3,1.3,0,0,1,569.491,126.877Z" transform="translate(-2429.605 6458.59)" fill="#fff"/>
    <path id="Path_36729" data-name="Path 36729" d="M584.386,126.975a1.021,1.021,0,0,1-.362-.425,1.584,1.584,0,0,1-.128-.66v-.66a1.518,1.518,0,0,1,.128-.66.979.979,0,0,1,.34-.426.938.938,0,0,1,.553-.149.827.827,0,0,1,.489.149.96.96,0,0,1,.362.4l-.064.617a.879.879,0,0,0-.064-.34.425.425,0,0,0-.213-.213.711.711,0,0,0-.319-.064.549.549,0,0,0-.447.191.776.776,0,0,0-.17.511v.66a.776.776,0,0,0,.17.511.549.549,0,0,0,.447.191.513.513,0,0,0,.319-.085,1.009,1.009,0,0,0,.213-.213.812.812,0,0,0,.064-.34l.043.638a1.041,1.041,0,0,1-.3.383.768.768,0,0,1-.511.149A1.132,1.132,0,0,1,584.386,126.975Zm0,1.213a1.022,1.022,0,0,1-.426-.362l.4-.362a1.04,1.04,0,0,0,.277.255.623.623,0,0,0,.34.085.664.664,0,0,0,.723-.723v-3.042h.6v2.936a1.572,1.572,0,0,1-.149.723,1.127,1.127,0,0,1-.447.447,1.427,1.427,0,0,1-.7.149A1.185,1.185,0,0,1,584.386,128.187Z" transform="translate(-2441.416 6458.514)" fill="#fff"/>
    <path id="Path_36730" data-name="Path 36730" d="M600.168,126.051a.681.681,0,0,0,.17.489.609.609,0,0,0,.447.17.7.7,0,0,0,.447-.149.609.609,0,0,0,.17-.447l.042.638a1.039,1.039,0,0,1-.3.383.851.851,0,0,1-.511.149.921.921,0,0,1-.766-.319,1.421,1.421,0,0,1-.277-.915V124.2h.6ZM601.4,124.2h.6v3.042h-.6Z" transform="translate(-2453.772 6458.353)" fill="#fff"/>
    <path id="Path_36731" data-name="Path 36731" d="M615.712,121.968a.33.33,0,0,0,.042.17.151.151,0,0,0,.128.064h.277v.574h-.34a.639.639,0,0,1-.532-.213.873.873,0,0,1-.191-.6V118.5h.6Z" transform="translate(-2465.976 6462.84)" fill="#fff"/>
    <path id="Path_36732" data-name="Path 36732" d="M622.762,126.888a.83.83,0,0,1-.277-.7.868.868,0,0,1,.255-.681,1.136,1.136,0,0,1,.766-.234h.872l.043.489h-.894a.5.5,0,0,0-.34.106.365.365,0,0,0-.106.319.372.372,0,0,0,.149.34.73.73,0,0,0,.468.106,1.491,1.491,0,0,0,.511-.064.249.249,0,0,0,.17-.234l.064.425a1.929,1.929,0,0,1-.191.213,1.1,1.1,0,0,1-.277.128,1.653,1.653,0,0,1-.34.043A1.516,1.516,0,0,1,622.762,126.888Zm1.6-1.745a.662.662,0,0,0-.17-.468.609.609,0,0,0-.447-.17,1.08,1.08,0,0,0-.362.064,2.137,2.137,0,0,0-.319.149l-.425-.3a1.144,1.144,0,0,1,.447-.319,1.551,1.551,0,0,1,.638-.106,1.421,1.421,0,0,1,.638.128.881.881,0,0,1,.4.383,1.389,1.389,0,0,1,.149.617v1.957h-.574v-1.936Z" transform="translate(-2471.792 6458.516)" fill="#fff"/>
    <path id="Path_36733" data-name="Path 36733" d="M637.1,120.894h1.361v.532H637.1Zm.489,2.851a.948.948,0,0,1-.17-.6V120h.6v3.149a.328.328,0,0,0,.042.17.128.128,0,0,0,.128.064h.3v.574h-.34A.826.826,0,0,1,637.589,123.744Z" transform="translate(-2483.301 6461.659)" fill="#fff"/>
    <path id="Path_36734" data-name="Path 36734" d="M647.691,126.877a1.063,1.063,0,0,1-.447-.468,1.6,1.6,0,0,1-.149-.745v-.34a1.7,1.7,0,0,1,.149-.766,1.113,1.113,0,0,1,.447-.489,1.428,1.428,0,0,1,.7-.17,1.144,1.144,0,0,1,.659.191,1.081,1.081,0,0,1,.4.553,2.568,2.568,0,0,1,.149.872v.191h-2.042v-.489h1.489a1.018,1.018,0,0,0-.192-.574.566.566,0,0,0-.447-.213.719.719,0,0,0-.532.213.953.953,0,0,0-.191.638v.383a.7.7,0,0,0,.766.787,1.08,1.08,0,0,0,.362-.064.653.653,0,0,0,.319-.213l.383.383a1.65,1.65,0,0,1-.511.34,1.4,1.4,0,0,1-.574.128A1.336,1.336,0,0,1,647.691,126.877Z" transform="translate(-2491.168 6458.59)" fill="#fff"/>
    <path id="Path_36735" data-name="Path 36735" d="M662.586,122.649a1.02,1.02,0,0,1-.362-.426,1.582,1.582,0,0,1-.128-.66v-.66a1.52,1.52,0,0,1,.128-.66.979.979,0,0,1,.341-.426.938.938,0,0,1,.553-.149.827.827,0,0,1,.489.149.96.96,0,0,1,.362.4l-.064.617a.882.882,0,0,0-.064-.34.426.426,0,0,0-.213-.213.71.71,0,0,0-.319-.064.549.549,0,0,0-.447.191.776.776,0,0,0-.17.511v.66a.775.775,0,0,0,.17.511.549.549,0,0,0,.447.191.513.513,0,0,0,.319-.085.676.676,0,0,0,.213-.213.81.81,0,0,0,.064-.34l.043.638a1.042,1.042,0,0,1-.3.383.768.768,0,0,1-.511.149,1.132,1.132,0,0,1-.553-.17Zm1.34-4.149h.6v4.255h-.6Z" transform="translate(-2502.979 6462.84)" fill="#fff"/>
    <path id="Path_36736" data-name="Path 36736" d="M685.3,118.5h.6v4.255h-.6Zm.872,4.149a.819.819,0,0,1-.319-.383l.042-.638a.883.883,0,0,0,.064.34.425.425,0,0,0,.213.213.71.71,0,0,0,.319.064.549.549,0,0,0,.447-.191.778.778,0,0,0,.17-.511v-.66a.735.735,0,0,0-.17-.511.549.549,0,0,0-.447-.191.71.71,0,0,0-.319.064.51.51,0,0,0-.213.213.711.711,0,0,0-.064.319l-.064-.6a.959.959,0,0,1,.362-.4.827.827,0,0,1,.489-.149.939.939,0,0,1,.553.149.852.852,0,0,1,.34.426,2.024,2.024,0,0,1,.128.66v.66a1.52,1.52,0,0,1-.128.66,1.021,1.021,0,0,1-.362.426,1.006,1.006,0,0,1-.574.149.541.541,0,0,1-.468-.106Z" transform="translate(-2521.247 6462.84)" fill="#fff"/>
    <path id="Path_36737" data-name="Path 36737" d="M698.6,124.121h.617l.936,2.638-.341.638Zm2.681,0-1.3,3.744a.677.677,0,0,1-.191.319.752.752,0,0,1-.277.17,1.15,1.15,0,0,1-.4.064h-.128v-.574h.128a.59.59,0,0,0,.276-.064.515.515,0,0,0,.17-.234l1.128-3.447Z" transform="translate(-2531.717 6458.432)" fill="#fff"/>
    <path id="Path_36738" data-name="Path 36738" d="M297.257,159.171a2.872,2.872,0,0,1-.511-.17,2.043,2.043,0,0,1-.447-.3l.383-.447a1.544,1.544,0,0,0,.532.319,2.006,2.006,0,0,0,.638.106,1.345,1.345,0,0,0,.723-.17.545.545,0,0,0,.255-.489h0a.523.523,0,0,0-.4-.553,2.188,2.188,0,0,0-.468-.106h-.085a4.259,4.259,0,0,1-.7-.17.876.876,0,0,1-.447-.34,1.146,1.146,0,0,1-.192-.7h0a1.4,1.4,0,0,1,.17-.681,1.251,1.251,0,0,1,.511-.425,1.893,1.893,0,0,1,.808-.149,3.173,3.173,0,0,1,.447.043,2.5,2.5,0,0,1,.425.149,2.252,2.252,0,0,1,.426.255l-.34.468a1.9,1.9,0,0,0-.489-.277,1.319,1.319,0,0,0-.489-.085,1.236,1.236,0,0,0-.681.17.53.53,0,0,0-.234.489h0a.449.449,0,0,0,.128.34.8.8,0,0,0,.319.191,4.412,4.412,0,0,0,.511.128h.085a3.289,3.289,0,0,1,.638.191.951.951,0,0,1,.425.34,1.211,1.211,0,0,1,.17.66h0a1.1,1.1,0,0,1-.191.66,1.188,1.188,0,0,1-.532.426,2.032,2.032,0,0,1-.851.149A1.488,1.488,0,0,1,297.257,159.171Z" transform="translate(-2215.006 6434.188)" fill="#fff"/>
    <path id="Path_36739" data-name="Path 36739" d="M314.791,163.477a1.064,1.064,0,0,1-.447-.468,1.607,1.607,0,0,1-.149-.745v-.34a1.7,1.7,0,0,1,.149-.766,1.113,1.113,0,0,1,.447-.489,1.428,1.428,0,0,1,.7-.17,1.144,1.144,0,0,1,.66.191,1.081,1.081,0,0,1,.4.553,2.566,2.566,0,0,1,.149.872v.191h-2.042v-.489h1.489a1.019,1.019,0,0,0-.191-.574.566.566,0,0,0-.447-.213.719.719,0,0,0-.532.213.915.915,0,0,0-.191.638v.383a.7.7,0,0,0,.766.787,1.08,1.08,0,0,0,.362-.064.653.653,0,0,0,.319-.213l.383.383a1.651,1.651,0,0,1-.511.34,1.4,1.4,0,0,1-.574.128A1.607,1.607,0,0,1,314.791,163.477Z" transform="translate(-2229.092 6429.776)" fill="#fff"/>
    <path id="Path_36740" data-name="Path 36740" d="M329.888,163.473a1.127,1.127,0,0,1-.447-.447,1.461,1.461,0,0,1-.149-.723v-.511a1.711,1.711,0,0,1,.149-.7,1.128,1.128,0,0,1,.447-.447,1.428,1.428,0,0,1,.7-.149,1.514,1.514,0,0,1,.447.064,1.051,1.051,0,0,1,.383.17,1.063,1.063,0,0,1,.277.255l-.425.383a1.035,1.035,0,0,0-.3-.234.7.7,0,0,0-.362-.085.708.708,0,0,0-.532.192.76.76,0,0,0-.192.553v.511a.76.76,0,0,0,.192.553.708.708,0,0,0,.532.191.7.7,0,0,0,.362-.085,1.034,1.034,0,0,0,.3-.234l.425.426a1.041,1.041,0,0,1-.277.255,1.6,1.6,0,0,1-.383.17,1.62,1.62,0,0,1-.447.064A1.8,1.8,0,0,1,329.888,163.473Z" transform="translate(-2240.978 6429.78)" fill="#fff"/>
    <path id="Path_36741" data-name="Path 36741" d="M344.059,162.551a.681.681,0,0,0,.17.489.609.609,0,0,0,.447.17.7.7,0,0,0,.447-.149.577.577,0,0,0,.17-.447l.043.638a1.04,1.04,0,0,1-.3.383.851.851,0,0,1-.511.149.921.921,0,0,1-.766-.319,1.309,1.309,0,0,1-.277-.915V160.7h.6Zm1.234-1.83h.6v3.021h-.6Z" transform="translate(-2252.148 6429.618)" fill="#fff"/>
    <path id="Path_36742" data-name="Path 36742" d="M359.1,160.485h.6v3.021h-.6Zm1.468.553a.583.583,0,0,0-.277-.043.7.7,0,0,0-.447.149.579.579,0,0,0-.149.426l-.064-.6a1.021,1.021,0,0,1,.362-.426.828.828,0,0,1,.489-.149,1.205,1.205,0,0,1,.383.064,1.356,1.356,0,0,1,.3.17l-.383.532A1.87,1.87,0,0,0,360.568,161.038Z" transform="translate(-2264.445 6429.854)" fill="#fff"/>
    <path id="Path_36743" data-name="Path 36743" d="M371.1,155h.6v.6h-.6Zm0,1.234h.6v3.021h-.6Z" transform="translate(-2273.892 6434.105)" fill="#fff"/>
    <path id="Path_36744" data-name="Path 36744" d="M377.1,157.572h1.362v.532H377.1Zm.489,2.851a.947.947,0,0,1-.17-.6V156.7h.6v3.149a.329.329,0,0,0,.043.17.128.128,0,0,0,.128.064h.3v.574h-.34A.893.893,0,0,1,377.589,160.423Z" transform="translate(-2278.616 6432.767)" fill="#fff"/>
    <path id="Path_36745" data-name="Path 36745" d="M387.4,155h.6v.6h-.6Zm0,1.234h.6v3.021h-.6Z" transform="translate(-2286.724 6434.105)" fill="#fff"/>
    <path id="Path_36746" data-name="Path 36746" d="M394.691,163.477a1.064,1.064,0,0,1-.447-.468,1.607,1.607,0,0,1-.149-.745v-.34a1.7,1.7,0,0,1,.149-.766,1.113,1.113,0,0,1,.447-.489,1.427,1.427,0,0,1,.7-.17,1.144,1.144,0,0,1,.66.191,1.081,1.081,0,0,1,.4.553,2.568,2.568,0,0,1,.149.872v.191h-2.042v-.489h1.489a1.019,1.019,0,0,0-.191-.574.566.566,0,0,0-.447-.213.719.719,0,0,0-.532.213.953.953,0,0,0-.191.638v.383a.7.7,0,0,0,.766.787,1.08,1.08,0,0,0,.362-.064.653.653,0,0,0,.319-.213l.383.383a1.652,1.652,0,0,1-.511.34,1.4,1.4,0,0,1-.574.128A1.606,1.606,0,0,1,394.691,163.477Z" transform="translate(-2291.994 6429.776)" fill="#fff"/>
    <path id="Path_36747" data-name="Path 36747" d="M409.23,163.82a3.663,3.663,0,0,1-.447-.149,3.993,3.993,0,0,1-.383-.255l.362-.426a1.9,1.9,0,0,0,.489.277,1.32,1.32,0,0,0,.489.085,1.172,1.172,0,0,0,.532-.106.332.332,0,0,0,.17-.319c0-.106-.021-.17-.106-.213a.788.788,0,0,0-.234-.106c-.106-.021-.234-.021-.4-.043h-.128a3.192,3.192,0,0,1-.511-.085.755.755,0,0,1-.34-.234.789.789,0,0,1-.128-.489.985.985,0,0,1,.128-.532.713.713,0,0,1,.383-.319,1.854,1.854,0,0,1,.66-.106,2.654,2.654,0,0,1,.447.043,1.277,1.277,0,0,1,.4.128,3.438,3.438,0,0,1,.383.213l-.362.425a1.425,1.425,0,0,0-.447-.213,1.59,1.59,0,0,0-.426-.064.762.762,0,0,0-.447.106.385.385,0,0,0-.149.319.213.213,0,0,0,.085.191.638.638,0,0,0,.213.085c.085.021.213.021.383.043h.128a3.386,3.386,0,0,1,.553.085.766.766,0,0,1,.383.255.851.851,0,0,1,.149.553.938.938,0,0,1-.149.553.738.738,0,0,1-.425.319,2.217,2.217,0,0,1-.7.106,4.743,4.743,0,0,0-.553-.128Z" transform="translate(-2303.257 6429.541)" fill="#fff"/>
    <path id="Path_36748" data-name="Path 36748" d="M432.242,157.4a.689.689,0,0,0-.192.511.638.638,0,0,0,.213.511.872.872,0,0,0,.6.191,1.126,1.126,0,0,0,.638-.191,1.172,1.172,0,0,0,.4-.574,2.828,2.828,0,0,0,.128-.894h.574a2.909,2.909,0,0,1-.213,1.191,1.689,1.689,0,0,1-.638.745,1.889,1.889,0,0,1-1,.255,1.342,1.342,0,0,1-.681-.149.916.916,0,0,1-.426-.425,1.585,1.585,0,0,1-.149-.66,1.2,1.2,0,0,1,.3-.83,1.247,1.247,0,0,1,.808-.362l.255.511a.77.77,0,0,0-.617.17Zm.3,0a3.112,3.112,0,0,1-.34-.447,1.429,1.429,0,0,1-.213-.489,2.128,2.128,0,0,1-.085-.511,1.236,1.236,0,0,1,.3-.872,1.1,1.1,0,0,1,.851-.3,1.034,1.034,0,0,1,1.128,1.128v.064h-.6v-.064a.53.53,0,0,0-.149-.4.582.582,0,0,0-.4-.149.53.53,0,0,0-.4.149.685.685,0,0,0-.149.426.964.964,0,0,0,.064.34,1.385,1.385,0,0,0,.17.362,2.03,2.03,0,0,0,.255.34l1.957,2.064h-.766Z" transform="translate(-2321.44 6434.28)" fill="#fff"/>
    <path id="Path_36749" data-name="Path 36749" d="M458.3,159.026a1.276,1.276,0,0,1-.511-.553,1.7,1.7,0,0,1-.192-.83v-1.17a1.7,1.7,0,0,1,.192-.83,1.428,1.428,0,0,1,.511-.553,1.517,1.517,0,0,1,.766-.191,1.863,1.863,0,0,1,.681.149,1.3,1.3,0,0,1,.511.447,1.671,1.671,0,0,1,.277.66h-.617a1.184,1.184,0,0,0-.191-.362.766.766,0,0,0-.3-.234.7.7,0,0,0-.362-.085.787.787,0,0,0-.447.128.725.725,0,0,0-.3.362,1.314,1.314,0,0,0-.106.532v1.17a1.391,1.391,0,0,0,.106.532.832.832,0,0,0,.3.362.787.787,0,0,0,.447.128.7.7,0,0,0,.362-.085,1.034,1.034,0,0,0,.3-.234,1.183,1.183,0,0,0,.191-.362h.617a1.671,1.671,0,0,1-.277.659,1.465,1.465,0,0,1-.511.447,1.425,1.425,0,0,1-.659.149A2.271,2.271,0,0,1,458.3,159.026Z" transform="translate(-2341.987 6434.185)" fill="#fff"/>
    <path id="Path_36750" data-name="Path 36750" d="M475.369,163.552a.959.959,0,0,1-.425-.447,1.513,1.513,0,0,1-.149-.723v-.489a1.427,1.427,0,0,1,.149-.7,1.075,1.075,0,0,1,.425-.447,1.342,1.342,0,0,1,.681-.149,1.4,1.4,0,0,1,.681.149.96.96,0,0,1,.426.447,1.429,1.429,0,0,1,.149.7v.511a1.428,1.428,0,0,1-.149.7,1.077,1.077,0,0,1-.426.447A1.629,1.629,0,0,1,475.369,163.552Zm1.149-.6a.851.851,0,0,0,.17-.553v-.511a.851.851,0,0,0-.17-.553.611.611,0,0,0-.489-.191.638.638,0,0,0-.489.191.851.851,0,0,0-.17.553v.511a.85.85,0,0,0,.17.553A.721.721,0,0,0,476.518,162.956Z" transform="translate(-2355.525 6429.702)" fill="#fff"/>
    <path id="Path_36751" data-name="Path 36751" d="M490.6,160.56h.6v3.021h-.6Zm1.808,1.191a.681.681,0,0,0-.17-.489.609.609,0,0,0-.447-.17.7.7,0,0,0-.447.149.593.593,0,0,0-.17.426l-.064-.6a1.021,1.021,0,0,1,.362-.425.851.851,0,0,1,.511-.149.938.938,0,0,1,.553.149.851.851,0,0,1,.34.425,1.585,1.585,0,0,1,.128.66v1.851h-.6Zm1.808,0a.681.681,0,0,0-.17-.489.662.662,0,0,0-.468-.17.56.56,0,0,0-.425.17.674.674,0,0,0-.149.489l-.128-.6a1.2,1.2,0,0,1,.383-.468.917.917,0,0,1,.511-.17.938.938,0,0,1,.553.149,1.021,1.021,0,0,1,.362.425,1.583,1.583,0,0,1,.128.66V163.6h-.6Z" transform="translate(-2367.969 6429.779)" fill="#fff"/>
    <path id="Path_36752" data-name="Path 36752" d="M514.7,160.56h.6v3.021h-.6Zm1.808,1.191a.681.681,0,0,0-.17-.489.608.608,0,0,0-.447-.17.7.7,0,0,0-.447.149.594.594,0,0,0-.17.426l-.064-.6a1.022,1.022,0,0,1,.362-.425.852.852,0,0,1,.511-.149.938.938,0,0,1,.553.149.851.851,0,0,1,.34.425,1.584,1.584,0,0,1,.128.66v1.851h-.6v-1.83Zm1.83,0a.681.681,0,0,0-.17-.489.662.662,0,0,0-.468-.17.559.559,0,0,0-.425.17.674.674,0,0,0-.149.489l-.128-.6a1.2,1.2,0,0,1,.383-.468.917.917,0,0,1,.511-.17.938.938,0,0,1,.553.149,1.021,1.021,0,0,1,.362.426,1.585,1.585,0,0,1,.128.66V163.6h-.6Z" transform="translate(-2386.941 6429.779)" fill="#fff"/>
    <path id="Path_36753" data-name="Path 36753" d="M539.069,163.552a.959.959,0,0,1-.425-.447,1.514,1.514,0,0,1-.149-.723v-.489a1.427,1.427,0,0,1,.149-.7,1.076,1.076,0,0,1,.425-.447,1.342,1.342,0,0,1,.681-.149,1.4,1.4,0,0,1,.681.149.959.959,0,0,1,.425.447,1.426,1.426,0,0,1,.149.7v.511a1.427,1.427,0,0,1-.149.7,1.077,1.077,0,0,1-.426.447,1.343,1.343,0,0,1-.681.149A1.294,1.294,0,0,1,539.069,163.552Zm1.149-.6a.851.851,0,0,0,.17-.553v-.511a.851.851,0,0,0-.17-.553.611.611,0,0,0-.489-.191.638.638,0,0,0-.489.191.851.851,0,0,0-.17.553v.511a.851.851,0,0,0,.17.553.721.721,0,0,0,.979,0Z" transform="translate(-2405.673 6429.702)" fill="#fff"/>
    <path id="Path_36754" data-name="Path 36754" d="M554.286,159.17a1.021,1.021,0,0,1-.362-.426,1.582,1.582,0,0,1-.128-.66v-.66a1.519,1.519,0,0,1,.128-.66.978.978,0,0,1,.34-.426.939.939,0,0,1,.553-.149.828.828,0,0,1,.489.149.96.96,0,0,1,.362.4l-.064.617a.882.882,0,0,0-.064-.34.425.425,0,0,0-.213-.213.71.71,0,0,0-.319-.064.549.549,0,0,0-.447.191.777.777,0,0,0-.17.511v.66a.777.777,0,0,0,.17.511.549.549,0,0,0,.447.191.513.513,0,0,0,.319-.085.677.677,0,0,0,.213-.213.81.81,0,0,0,.064-.34l.043.638a1.04,1.04,0,0,1-.3.383.768.768,0,0,1-.51.149A1.132,1.132,0,0,1,554.286,159.17Zm1.319-4.17h.6v4.255h-.6Z" transform="translate(-2417.72 6434.105)" fill="#fff"/>
    <path id="Path_36755" data-name="Path 36755" d="M569.4,155h.6v.6h-.6Zm0,1.234h.6v3.021h-.6Z" transform="translate(-2430.004 6434.105)" fill="#fff"/>
    <path id="Path_36756" data-name="Path 36756" d="M575.4,157.572h1.362v.532H575.4Zm.489,2.851a.946.946,0,0,1-.17-.6V156.7h.6v3.149a.329.329,0,0,0,.042.17.128.128,0,0,0,.128.064h.3v.574h-.34A.893.893,0,0,1,575.889,160.423Z" transform="translate(-2434.728 6432.767)" fill="#fff"/>
    <path id="Path_36757" data-name="Path 36757" d="M585.7,155h.6v.6h-.6Zm0,1.234h.6v3.021h-.6Z" transform="translate(-2442.836 6434.105)" fill="#fff"/>
    <path id="Path_36758" data-name="Path 36758" d="M592.991,163.477a1.064,1.064,0,0,1-.447-.468,1.6,1.6,0,0,1-.149-.745v-.34a1.7,1.7,0,0,1,.149-.766,1.113,1.113,0,0,1,.447-.489,1.427,1.427,0,0,1,.7-.17,1.144,1.144,0,0,1,.659.191,1.08,1.08,0,0,1,.4.553,2.565,2.565,0,0,1,.149.872v.191h-2.042v-.489h1.489a1.018,1.018,0,0,0-.191-.574.566.566,0,0,0-.447-.213.719.719,0,0,0-.532.213.953.953,0,0,0-.191.638v.383a.7.7,0,0,0,.766.787,1.08,1.08,0,0,0,.362-.064.652.652,0,0,0,.319-.213l.383.383a1.651,1.651,0,0,1-.511.34,1.4,1.4,0,0,1-.574.128A1.606,1.606,0,0,1,592.991,163.477Z" transform="translate(-2448.106 6429.776)" fill="#fff"/>
    <path id="Path_36759" data-name="Path 36759" d="M607.53,163.82a3.657,3.657,0,0,1-.447-.149,3.983,3.983,0,0,1-.383-.255l.362-.426a1.906,1.906,0,0,0,.489.277,1.319,1.319,0,0,0,.489.085,1.172,1.172,0,0,0,.532-.106.332.332,0,0,0,.17-.319c0-.106-.021-.17-.106-.213a.789.789,0,0,0-.234-.106c-.106-.021-.234-.021-.4-.043h-.128a3.2,3.2,0,0,1-.511-.085.755.755,0,0,1-.34-.234.789.789,0,0,1-.128-.489.984.984,0,0,1,.128-.532.712.712,0,0,1,.383-.319,1.854,1.854,0,0,1,.66-.106,2.655,2.655,0,0,1,.447.043,1.276,1.276,0,0,1,.4.128,3.438,3.438,0,0,1,.383.213l-.362.425a1.426,1.426,0,0,0-.447-.213,1.59,1.59,0,0,0-.425-.064.761.761,0,0,0-.447.106.336.336,0,0,0-.149.319.212.212,0,0,0,.085.191.639.639,0,0,0,.213.085c.085.021.213.021.383.043h.128a3.385,3.385,0,0,1,.553.085.766.766,0,0,1,.383.255.85.85,0,0,1,.149.553.938.938,0,0,1-.149.553.738.738,0,0,1-.425.319,2.216,2.216,0,0,1-.7.106A4.747,4.747,0,0,0,607.53,163.82Z" transform="translate(-2459.368 6429.541)" fill="#fff"/>
    <path id="Path_36760" data-name="Path 36760" d="M630.132,155h.511l1.574,4.255h-.638l-1.17-3.447-1.17,3.447H628.6Zm-.851,2.766h2.234v.574h-2.234Z" transform="translate(-2476.609 6434.105)" fill="#fff"/>
    <path id="Path_36761" data-name="Path 36761" d="M649.059,162.551a.68.68,0,0,0,.17.489.608.608,0,0,0,.447.17.7.7,0,0,0,.447-.149.577.577,0,0,0,.17-.447l.043.638a1.041,1.041,0,0,1-.3.383.852.852,0,0,1-.511.149.921.921,0,0,1-.766-.319,1.308,1.308,0,0,1-.277-.915V160.7h.6l-.021,1.851Zm1.234-1.83h.6v3.021h-.6Z" transform="translate(-2492.26 6429.618)" fill="#fff"/>
    <path id="Path_36762" data-name="Path 36762" d="M662.9,157.572h1.362v.532H662.9Zm.489,2.851a.946.946,0,0,1-.17-.6V156.7h.6v3.149a.33.33,0,0,0,.043.17.128.128,0,0,0,.128.064h.3v.574h-.34A.953.953,0,0,1,663.389,160.423Z" transform="translate(-2503.612 6432.767)" fill="#fff"/>
    <path id="Path_36763" data-name="Path 36763" d="M673.2,155h.6v4.255h-.6Zm1.851,2.425a.681.681,0,0,0-.17-.489.662.662,0,0,0-.468-.17.6.6,0,0,0-.447.149.56.56,0,0,0-.17.426l-.064-.6a1.174,1.174,0,0,1,.362-.425.852.852,0,0,1,.511-.149.951.951,0,0,1,.766.319,1.309,1.309,0,0,1,.277.915v1.851h-.6Z" transform="translate(-2511.721 6434.105)" fill="#fff"/>
    <path id="Path_36764" data-name="Path 36764" d="M689.169,163.552a.958.958,0,0,1-.425-.447,1.513,1.513,0,0,1-.149-.723v-.489a1.427,1.427,0,0,1,.149-.7,1.077,1.077,0,0,1,.425-.447,1.342,1.342,0,0,1,.681-.149,1.4,1.4,0,0,1,.681.149.96.96,0,0,1,.426.447,1.427,1.427,0,0,1,.149.7v.511a1.427,1.427,0,0,1-.149.7,1.077,1.077,0,0,1-.426.447A1.63,1.63,0,0,1,689.169,163.552Zm1.149-.6a.851.851,0,0,0,.17-.553v-.511a.85.85,0,0,0-.17-.553.611.611,0,0,0-.489-.191.638.638,0,0,0-.489.191.852.852,0,0,0-.17.553v.511a.852.852,0,0,0,.17.553.611.611,0,0,0,.489.191A.583.583,0,0,0,690.318,162.956Z" transform="translate(-2523.839 6429.702)" fill="#fff"/>
    <path id="Path_36765" data-name="Path 36765" d="M704.4,160.485h.6v3.021h-.6Zm1.468.553a.583.583,0,0,0-.276-.043.7.7,0,0,0-.447.149.579.579,0,0,0-.149.425l-.064-.6a1.021,1.021,0,0,1,.362-.426.827.827,0,0,1,.489-.149,1.2,1.2,0,0,1,.383.064,1.355,1.355,0,0,1,.3.17l-.383.532A1.883,1.883,0,0,0,705.868,161.038Z" transform="translate(-2536.283 6429.854)" fill="#fff"/>
    <path id="Path_36766" data-name="Path 36766" d="M716.4,155h.6v.6h-.6Zm0,1.234h.6v3.021h-.6Z" transform="translate(-2545.73 6434.105)" fill="#fff"/>
    <path id="Path_36767" data-name="Path 36767" d="M722.4,157.572h1.362v.532H722.4Zm.468,2.851a.946.946,0,0,1-.17-.6V156.7h.6v3.149a.331.331,0,0,0,.042.17.128.128,0,0,0,.128.064h.3v.574h-.34A.953.953,0,0,1,722.868,160.423Z" transform="translate(-2550.453 6432.767)" fill="#fff"/>
    <path id="Path_36768" data-name="Path 36768" d="M731.2,160.721h.617l.936,2.638-.34.638Zm2.681,0-1.3,3.744a.677.677,0,0,1-.191.319.752.752,0,0,1-.277.17,1.15,1.15,0,0,1-.4.064h-.128v-.574h.128a.59.59,0,0,0,.276-.064.515.515,0,0,0,.17-.234l1.128-3.447.6.021Z" transform="translate(-2557.381 6429.618)" fill="#fff"/>
    <path id="Path_36769" data-name="Path 36769" d="M754.355,157.183a4.85,4.85,0,0,1,0-3.106,3.648,3.648,0,0,1,.787-1.276l.4.383a3.257,3.257,0,0,0-.66,1.106,4.328,4.328,0,0,0,0,2.681,3.469,3.469,0,0,0,.659,1.106l-.4.362A4.041,4.041,0,0,1,754.355,157.183Z" transform="translate(-2575.409 6435.837)" fill="#fff"/>
    <path id="Path_36770" data-name="Path 36770" d="M763.457,159.171a2.868,2.868,0,0,1-.511-.17,2.043,2.043,0,0,1-.447-.3l.383-.447a1.542,1.542,0,0,0,.532.319,2.007,2.007,0,0,0,.638.106,1.345,1.345,0,0,0,.723-.17.545.545,0,0,0,.255-.489h0a.611.611,0,0,0-.107-.362.721.721,0,0,0-.3-.191,2.185,2.185,0,0,0-.468-.106h-.085a4.253,4.253,0,0,1-.7-.17.876.876,0,0,1-.447-.34,1.147,1.147,0,0,1-.192-.7h0a1.4,1.4,0,0,1,.17-.681,1.251,1.251,0,0,1,.511-.425,1.893,1.893,0,0,1,.808-.149,3.178,3.178,0,0,1,.447.043,2.5,2.5,0,0,1,.425.149,3.2,3.2,0,0,1,.425.255l-.34.468a1.9,1.9,0,0,0-.489-.277,1.32,1.32,0,0,0-.489-.085,1.236,1.236,0,0,0-.681.17.53.53,0,0,0-.234.489h0a.449.449,0,0,0,.128.34.8.8,0,0,0,.319.191,4.419,4.419,0,0,0,.511.128h.085a3.291,3.291,0,0,1,.638.191.95.95,0,0,1,.425.34,1.21,1.21,0,0,1,.17.66h0a1.1,1.1,0,0,1-.191.66,1.188,1.188,0,0,1-.532.426,2.032,2.032,0,0,1-.851.149A1.511,1.511,0,0,1,763.457,159.171Z" transform="translate(-2582.022 6434.188)" fill="#fff"/>
    <path id="Path_36771" data-name="Path 36771" d="M780.8,159.026a1.278,1.278,0,0,1-.511-.553,1.7,1.7,0,0,1-.191-.83v-1.17a1.7,1.7,0,0,1,.191-.83,1.428,1.428,0,0,1,.511-.553,1.518,1.518,0,0,1,.766-.191,1.863,1.863,0,0,1,.681.149,1.3,1.3,0,0,1,.511.447,1.669,1.669,0,0,1,.276.66h-.617a1.184,1.184,0,0,0-.192-.362.767.767,0,0,0-.3-.234.7.7,0,0,0-.362-.085.787.787,0,0,0-.447.128.725.725,0,0,0-.3.362,1.312,1.312,0,0,0-.106.532v1.17a1.392,1.392,0,0,0,.106.532.831.831,0,0,0,.3.362.787.787,0,0,0,.447.128.7.7,0,0,0,.362-.085,1.035,1.035,0,0,0,.3-.234,1.182,1.182,0,0,0,.192-.362h.617a1.669,1.669,0,0,1-.276.659,1.465,1.465,0,0,1-.511.447,1.425,1.425,0,0,1-.66.149A2.271,2.271,0,0,1,780.8,159.026Z" transform="translate(-2595.876 6434.185)" fill="#fff"/>
    <path id="Path_36772" data-name="Path 36772" d="M796.932,155h.511l1.574,4.255h-.638l-1.17-3.447-1.17,3.447H795.4Zm-.851,2.766h2.234v.574h-2.234Z" transform="translate(-2607.923 6434.105)" fill="#fff"/>
    <path id="Path_36773" data-name="Path 36773" d="M813.2,158.076a3.257,3.257,0,0,0,.659-1.106,4.329,4.329,0,0,0,0-2.681,3.474,3.474,0,0,0-.659-1.106l.4-.383a3.988,3.988,0,0,1,.787,1.276,4.85,4.85,0,0,1,0,3.106,3.648,3.648,0,0,1-.787,1.277Z" transform="translate(-2621.936 6435.837)" fill="#fff"/>
    <line id="Line_595" data-name="Line 595" x1="18.956" y1="18.956" transform="translate(-1953.533 6566.447)" fill="none" stroke="#fff" stroke-width="0.5"/>
    <line id="Line_596" data-name="Line 596" x1="18.956" y1="18.956" transform="translate(-1950.767 6563.575)" fill="none" stroke="#fff" stroke-width="0.5"/>
    <line id="Line_597" data-name="Line 597" y1="19.147" x2="19.126" transform="translate(-1964.298 6563.81)" fill="none" stroke="#fff" stroke-width="0.5"/>
    <line id="Line_598" data-name="Line 598" y1="19.126" x2="19.147" transform="translate(-1961.553 6566.341)" fill="none" stroke="#fff" stroke-width="0.5"/>
    <line id="Line_599" data-name="Line 599" y1="19.126" x2="19.126" transform="translate(-1958.788 6569.106)" fill="none" stroke="#fff" stroke-width="0.5"/>
    <line id="Line_600" data-name="Line 600" y1="19.126" x2="19.126" transform="translate(-1955.916 6571.745)" fill="none" stroke="#fff" stroke-width="0.5"/>
    <line id="Line_601" data-name="Line 601" y1="19.126" x2="19.126" transform="translate(-1953.043 6574.511)" fill="none" stroke="#fff" stroke-width="0.5"/>
    <line id="Line_602" data-name="Line 602" y1="19.126" x2="19.126" transform="translate(-1950.341 6577.276)" fill="none" stroke="#fff" stroke-width="0.5"/>
    <line id="Line_603" data-name="Line 603" x1="18.956" y1="18.956" transform="translate(-1961.447 6574.83)" fill="none" stroke="#fff" stroke-width="0.5"/>
    <line id="Line_604" data-name="Line 604" x1="18.977" y1="18.956" transform="translate(-1958.937 6572.064)" fill="none" stroke="#fff" stroke-width="0.5"/>
    <line id="Line_605" data-name="Line 605" x1="18.956" y1="18.956" transform="translate(-1956.171 6569.319)" fill="none" stroke="#fff" stroke-width="0.5"/>
    <line id="Line_606" data-name="Line 606" x1="18.956" y1="18.956" transform="translate(-1964.404 6577.531)" fill="none" stroke="#fff" stroke-width="0.5"/>
    <path id="Path_36774" data-name="Path 36774" d="M38.262,19.306,19.306.35.18,19.476" transform="translate(-1967.18 6560.523)" fill="rgba(255,255,255,0)" stroke="#fff" stroke-width="0.5"/>
    <rect id="Rectangle_6236" data-name="Rectangle 6236" width="15.999" height="15.999" transform="translate(-1959.132 6577.514) rotate(-45)" fill="#fff"/>
    <rect id="Rectangle_6237" data-name="Rectangle 6237" width="0.021" height="3.893" transform="translate(-1948.024 6571.942) rotate(-45.01)" fill="none" stroke="#fff" stroke-width="0.5"/>
    <rect id="Rectangle_6238" data-name="Rectangle 6238" width="0.021" height="3.893" transform="translate(-1945.27 6574.715) rotate(-45.01)" fill="none" stroke="#fff" stroke-width="0.5"/>
    <path id="Path_36775" data-name="Path 36775" d="M89.244,52.193,89.2,52.15l-.021.021.043.043Z" transform="translate(-2037.245 6519.744)" fill="none" stroke="#fff" stroke-width="0.5"/>
    <path id="Path_36776" data-name="Path 36776" d="M115.3,78.293l.021-.021-.021-.021-.021.021Z" transform="translate(-2057.792 6499.196)" fill="none" stroke="#fff" stroke-width="0.5"/>
    <rect id="Rectangle_6239" data-name="Rectangle 6239" width="3.893" height="0.064" transform="translate(-1950.814 6574.659) rotate(-45.01)" fill="none" stroke="#fff" stroke-width="0.5"/>
    <rect id="Rectangle_6240" data-name="Rectangle 6240" width="0.064" height="0.021" transform="translate(-1948.064 6583.03) rotate(-44.89)" fill="none" stroke="#fff" stroke-width="0.5"/>
    <rect id="Rectangle_6241" data-name="Rectangle 6241" width="0.064" height="3.893" transform="translate(-1950.808 6580.262) rotate(-44.62)" fill="none" stroke="#fff" stroke-width="0.5"/>
    <rect id="Rectangle_6242" data-name="Rectangle 6242" width="0.064" height="3.893" transform="translate(-1953.585 6577.514) rotate(-45.01)" fill="none" stroke="#fff" stroke-width="0.5"/>
    <rect id="Rectangle_6243" data-name="Rectangle 6243" width="3.893" height="0.064" transform="translate(-1953.583 6577.422) rotate(-44.56)" fill="none" stroke="#fff" stroke-width="0.5"/>
    <rect id="Rectangle_6244" data-name="Rectangle 6244" width="3.893" height="3.893" transform="translate(-1950.768 6574.71) rotate(-45)" fill="none" stroke="#fff" stroke-width="0.5"/>
    <rect id="Rectangle_6245" data-name="Rectangle 6245" width="0.064" height="0.064" transform="translate(-1953.635 6577.471) rotate(-45.38)" fill="none" stroke="#fff" stroke-width="0.5"/>
    <rect id="Rectangle_6246" data-name="Rectangle 6246" width="3.893" height="3.893" transform="translate(-1948.019 6577.472) rotate(-45)" fill="none" stroke="#fff" stroke-width="0.5"/>
    <rect id="Rectangle_6247" data-name="Rectangle 6247" width="3.893" height="3.893" transform="translate(-1950.767 6580.22) rotate(-45.01)" fill="none" stroke="#fff" stroke-width="0.5"/>
    <rect id="Rectangle_6248" data-name="Rectangle 6248" width="3.893" height="3.893" transform="translate(-1953.535 6577.463) rotate(-45.01)" fill="none" stroke="#fff" stroke-width="0.5"/>
    <rect id="Rectangle_6249" data-name="Rectangle 6249" width="3.893" height="0.021" transform="translate(-1948.013 6582.982) rotate(-45)" fill="none" stroke="#fff" stroke-width="0.5"/>
    <rect id="Rectangle_6250" data-name="Rectangle 6250" width="3.893" height="0.021" transform="matrix(0.721, -0.693, 0.693, 0.721, -1945.288, 6580.207)" fill="none" stroke="#fff" stroke-width="0.5"/>
    <path id="Path_36777" data-name="Path 36777" d="M51.06,55.753,53.813,53h0Z" transform="translate(-2007.235 6519.074)" fill="none" stroke="#fff" stroke-width="0.5"/>
    <path id="Path_36778" data-name="Path 36778" d="M51.08,90.75h0l2.744,2.766h.021Z" transform="translate(-2007.251 6489.355)" fill="none" stroke="#fff" stroke-width="0.5"/>
    <path id="Path_36779" data-name="Path 36779" d="M77.51,29.267l2.581-3.027h0Z" transform="translate(-2028.058 6540.142)" fill="none"/>
    <path id="Path_36780" data-name="Path 36780" d="M64.03,42.733l2.753-2.753h0Z" transform="translate(-2017.446 6529.324)" fill="none" stroke="#fff" stroke-width="0.5"/>
    <path id="Path_36781" data-name="Path 36781" d="M38.68,68.588l2.638-2.638h0L38.68,68.588l2.638,2.638h0Z" transform="translate(-1997.489 6508.88)" fill="none" stroke="#fff" stroke-width="0.5"/>
    <rect id="Rectangle_6253" data-name="Rectangle 6253" width="3.957" height="3.893" transform="translate(-1945.246 6574.698) rotate(-45.01)" fill="#2e3192" stroke="#fff" stroke-width="0.5"/>
    <rect id="Rectangle_6254" data-name="Rectangle 6254" width="3.957" height="3.893" transform="translate(-1947.999 6571.926) rotate(-45)" fill="#2e3192" stroke="#fff" stroke-width="0.5"/>
    <rect id="Rectangle_6255" data-name="Rectangle 6255" width="3.723" height="0.043" transform="translate(-1947.837 6588.432) rotate(-45.06)" fill="#2e3192" stroke="#fff" stroke-width="0.5"/>
    <rect id="Rectangle_6256" data-name="Rectangle 6256" width="3.893" height="0.043" transform="matrix(0.707, -0.707, 0.707, 0.707, -1942.442, 6583.04)" fill="#2e3192" stroke="#fff" stroke-width="0.5"/>
    <rect id="Rectangle_6257" data-name="Rectangle 6257" width="3.893" height="0.043" transform="translate(-1945.201 6585.785) rotate(-45)" fill="#2e3192" stroke="#fff" stroke-width="0.5"/>
    <path id="Path_36782" data-name="Path 36782" d="M79.639,104.35l-.043.043-.021-.021-2.6,2.6,2.83,2.83,2.638-2.659Z" transform="translate(-2027.641 6478.649)" fill="#2e3192" stroke="#fff" stroke-width="0.5"/>
    <rect id="Rectangle_6258" data-name="Rectangle 6258" width="3.659" height="3.893" transform="translate(-1956.169 6580.099) rotate(-44.99)" fill="#2e3192" stroke="#fff" stroke-width="0.5"/>
    <rect id="Rectangle_6259" data-name="Rectangle 6259" width="3.893" height="3.957" transform="translate(-1945.242 6580.229) rotate(-45.01)" fill="#2e3192" stroke="#fff" stroke-width="0.5"/>
    <rect id="Rectangle_6260" data-name="Rectangle 6260" width="0.043" height="3.893" transform="translate(-1945.201 6569.141) rotate(-45.01)" fill="#2e3192" stroke="#fff" stroke-width="0.5"/>
    <rect id="Rectangle_6261" data-name="Rectangle 6261" width="0.043" height="3.893" transform="translate(-1942.432 6571.87) rotate(-44.38)" fill="#2e3192" stroke="#fff" stroke-width="0.5"/>
    <rect id="Rectangle_6262" data-name="Rectangle 6262" width="3.893" height="3.957" transform="translate(-1947.999 6583.001) rotate(-45)" fill="#2e3192" stroke="#fff" stroke-width="0.5"/>
    <path id="Path_36783" data-name="Path 36783" d="M141.823,78.214l.021-.021-.021-.043-.043.043Z" transform="translate(-2078.655 6499.275)" fill="#2e3192" stroke="#fff" stroke-width="0.5"/>
    <rect id="Rectangle_6263" data-name="Rectangle 6263" width="3.978" height="0.043" transform="translate(-1939.686 6580.286) rotate(-45.01)" fill="#2e3192" stroke="#fff" stroke-width="0.5"/>
    <path id="Path_36784" data-name="Path 36784" d="M118.188,65.15l-2.808,2.787.021.021-.021.021,2.808,2.787L121,67.958Z" transform="translate(-2057.871 6509.51)" fill="#2e3192" stroke="#fff" stroke-width="0.5"/>
    <path id="Path_36785" data-name="Path 36785" d="M43.871,68.588l.043-.043-2.6-2.6L38.68,68.588l2.638,2.638,2.6-2.6Z" transform="translate(-1997.489 6508.88)" fill="#2e3192" stroke="#fff" stroke-width="0.5"/>
    <rect id="Rectangle_6264" data-name="Rectangle 6264" width="3.893" height="3.659" transform="translate(-1956.172 6574.833) rotate(-45)" fill="#2e3192" stroke="#fff" stroke-width="0.5"/>
    <path id="Path_36786" data-name="Path 36786" d="M79.576,32.175l.021-.021.043.043,2.808-2.808L79.81,26.75l-2.83,2.83Z" transform="translate(-2027.641 6539.74)" fill="#2e3192" stroke="#fff" stroke-width="0.5"/>
    <rect id="Rectangle_6265" data-name="Rectangle 6265" width="3.893" height="3.659" transform="translate(-1953.412 6572.063) rotate(-45)" fill="#2e3192" stroke="#fff" stroke-width="0.5"/>
    <rect id="Rectangle_6266" data-name="Rectangle 6266" width="0.043" height="3.723" transform="translate(-1947.84 6566.507) rotate(-45)" fill="#2e3192" stroke="#fff" stroke-width="0.5"/>
    <rect id="Rectangle_6267" data-name="Rectangle 6267" width="3.659" height="3.893" transform="translate(-1953.41 6582.868) rotate(-45)" fill="#2e3192" stroke="#fff" stroke-width="0.5"/>
    <path id="Path_36787" data-name="Path 36787" d="M131.388,67.8l.043-.043L128.6,64.95l-.021.043Z" transform="translate(-2068.263 6509.667)" fill="#2e3192" stroke="#fff" stroke-width="0.5"/>
    <line id="Line_607" data-name="Line 607" x1="2.766" y2="2.766" transform="translate(-1948.022 6574.702)" fill="none" stroke="#000" stroke-width="0.5"/>
    <line id="Line_608" data-name="Line 608" x1="2.766" y1="2.744" transform="translate(-1948.022 6577.468)" fill="none" stroke="#000" stroke-width="0.5"/>
    <path id="Path_36788" data-name="Path 36788" d="M76.28,70.767l2.787-2.808L76.28,65.15" transform="translate(-2027.089 6509.51)" fill="none" stroke="#000" stroke-width="0.5"/>
    <path id="Path_36789" data-name="Path 36789" d="M119,207.3h.4v2.872H119Zm.213,0h1.638v.383h-1.638Zm0,1.255h1.425v.383h-1.425Zm0,1.234h1.638v.383h-1.638Z" transform="translate(-2075.426 6392.932)" fill="#fff"/>
    <path id="Path_36790" data-name="Path 36790" d="M129.953,213.062a1.23,1.23,0,0,1-.3-.106,1.777,1.777,0,0,1-.255-.17l.234-.3a1.078,1.078,0,0,0,.34.192.851.851,0,0,0,.319.064.568.568,0,0,0,.362-.085.234.234,0,0,0,.128-.213.193.193,0,0,0-.064-.149.242.242,0,0,0-.17-.064c-.064,0-.149-.021-.277-.021h-.128a1.613,1.613,0,0,1-.34-.064.447.447,0,0,1-.234-.17.541.541,0,0,1-.085-.34.651.651,0,0,1,.085-.362.5.5,0,0,1,.255-.213,1.324,1.324,0,0,1,.447-.064c.106,0,.213.021.3.021a.694.694,0,0,1,.277.085,1.588,1.588,0,0,1,.255.149l-.234.3c-.106-.064-.213-.106-.3-.149a1.437,1.437,0,0,0-.3-.043.564.564,0,0,0-.3.064.262.262,0,0,0-.106.213.128.128,0,0,0,.064.128,1.033,1.033,0,0,0,.149.064.877.877,0,0,0,.255.021h.085a.917.917,0,0,1,.362.064.543.543,0,0,1,.255.17.732.732,0,0,1,.021.723.57.57,0,0,1-.277.213,1.558,1.558,0,0,1-.468.064A.974.974,0,0,1,129.953,213.062Z" transform="translate(-2083.614 6390.021)" fill="#fff"/>
    <path id="Path_36791" data-name="Path 36791" d="M139.3,208.974h.915v.362H139.3Zm.319,1.936a.574.574,0,0,1-.106-.4V208.4h.4v2.106a.927.927,0,0,0,.021.106.111.111,0,0,0,.085.043h.191v.383h-.234A.5.5,0,0,1,139.619,210.91Z" transform="translate(-2091.407 6392.066)" fill="#fff"/>
    <path id="Path_36792" data-name="Path 36792" d="M146.316,210.108a.587.587,0,0,1-.234-.277,1.276,1.276,0,0,1-.085-.447v-.447a.987.987,0,0,1,.085-.447.606.606,0,0,1,.234-.277.734.734,0,0,1,.383-.106.623.623,0,0,1,.34.085.541.541,0,0,1,.234.255l-.043.426a.762.762,0,0,0-.043-.234c-.021-.064-.085-.106-.128-.149a.319.319,0,0,0-.213-.043.358.358,0,0,0-.3.128.541.541,0,0,0-.106.34v.447a.541.541,0,0,0,.106.34.358.358,0,0,0,.3.128.639.639,0,0,0,.213-.043.226.226,0,0,0,.128-.149.657.657,0,0,0,.043-.234l.021.426a.581.581,0,0,1-.191.255.589.589,0,0,1-.34.106A.762.762,0,0,1,146.316,210.108Zm.894-2.808h.4v2.872h-.4Z" transform="translate(-2096.678 6392.932)" fill="#fff"/>
    <path id="Path_36793" data-name="Path 36793" d="M156.1,218.8h.425v.426H156.1Z" transform="translate(-2104.633 6383.879)" fill="#fff"/>
    <path id="Path_36794" data-name="Path 36794" d="M166.008,210.172h-.4v-2.425l-.4.255v-.425l.4-.277h.4Z" transform="translate(-2111.797 6392.932)" fill="#fff"/>
    <path id="Path_36795" data-name="Path 36795" d="M172.958,208.589v.064a.226.226,0,0,1-.149.128.764.764,0,0,1-.234.043.717.717,0,0,1-.362-.106.551.551,0,0,1-.234-.3,1.392,1.392,0,0,1-.085-.447h0a1.024,1.024,0,0,1,.085-.468.638.638,0,0,1,.277-.3.9.9,0,0,1,.426-.106.838.838,0,0,1,.425.106.751.751,0,0,1,.277.3,1.083,1.083,0,0,1,.085.468h0a1.645,1.645,0,0,1-.043.319,2.091,2.091,0,0,1-.106.34,30.145,30.145,0,0,0-.043.085l-.617,1.234h-.426Zm0-.255a.608.608,0,0,0,.106-.362h0a.5.5,0,0,0-.106-.34.411.411,0,0,0-.6,0,.564.564,0,0,0-.106.362h0a.609.609,0,0,0,.106.362.358.358,0,0,0,.3.128A.4.4,0,0,0,172.958,208.333Z" transform="translate(-2117.066 6393.09)" fill="#fff"/>
    <path id="Path_36796" data-name="Path 36796" d="M182.658,208.589v.064a.225.225,0,0,1-.149.128.764.764,0,0,1-.234.043.717.717,0,0,1-.362-.106.551.551,0,0,1-.234-.3,1.39,1.39,0,0,1-.085-.447h0a1.023,1.023,0,0,1,.085-.468.638.638,0,0,1,.277-.3.9.9,0,0,1,.425-.106.838.838,0,0,1,.426.106.751.751,0,0,1,.277.3,1.083,1.083,0,0,1,.085.468h0a1.646,1.646,0,0,1-.043.319,2.092,2.092,0,0,1-.106.34l-.043.085-.617,1.234h-.426Zm.021-.255a.609.609,0,0,0,.106-.362h0a.5.5,0,0,0-.106-.34.411.411,0,0,0-.6,0,.564.564,0,0,0-.106.362h0a.609.609,0,0,0,.106.362.358.358,0,0,0,.3.128A.447.447,0,0,0,182.679,208.333Z" transform="translate(-2124.702 6393.09)" fill="#fff"/>
    <path id="Path_36797" data-name="Path 36797" d="M190.521,209.385l.957-2.085h.4l-.936,2.042h1.4v.383H190.5v-.34Zm1.234-.915h.383v1.681h-.383Z" transform="translate(-2131.715 6392.932)" fill="#fff"/>
  </g>
</svg>
